<svg xmlns="http://www.w3.org/2000/svg" fill="none" viewBox="0 0 212 212"><g opacity=".1" filter="url(#a)" shape-rendering="crispEdges"><path d="M4 25C4 11.193 15.193 0 29 0h154c13.807 0 25 11.193 25 25v149c0 16.569-13.431 30-30 30H34c-16.569 0-30-13.431-30-30V25Z" fill="url(#b)"/><path d="M4.5 25C4.5 11.469 15.469.5 29 .5h154c13.531 0 24.5 10.969 24.5 24.5v149c0 16.292-13.208 29.5-29.5 29.5H34c-16.292 0-29.5-13.208-29.5-29.5V25Z" stroke="#fff" stroke-opacity=".2"/></g><defs><linearGradient id="b" x1="33" y1="20.5" x2="277.5" y2="95" gradientUnits="userSpaceOnUse"><stop stop-color="#fff" stop-opacity="0"/><stop offset="1" stop-color="#fff"/></linearGradient><filter id="a" x="0" y="0" width="212" height="212" filterUnits="userSpaceOnUse" color-interpolation-filters="sRGB"><feFlood flood-opacity="0" result="BackgroundImageFix"/><feColorMatrix in="SourceAlpha" values="0 0 0 0 0 0 0 0 0 0 0 0 0 0 0 0 0 0 127 0" result="hardAlpha"/><feOffset dy="4"/><feGaussianBlur stdDeviation="2"/><feComposite in2="hardAlpha" operator="out"/><feColorMatrix values="0 0 0 0 0 0 0 0 0 0 0 0 0 0 0 0 0 0 0.25 0"/><feBlend in2="BackgroundImageFix" result="effect1_dropShadow_455_315"/><feBlend in="SourceGraphic" in2="effect1_dropShadow_455_315" result="shape"/></filter></defs></svg>