<svg fill="none" xmlns="http://www.w3.org/2000/svg" viewBox="0 0 16 17"><path d="M14.667 6.2V3.175c0-.94-.427-1.32-1.487-1.32h-2.693c-1.06 0-1.487.38-1.487 1.32v3.02c0 .947.427 1.32 1.487 1.32h2.693c1.06.007 1.487-.373 1.487-1.313Zm0 7.5v-2.692c0-1.06-.427-1.487-1.487-1.487h-2.693C9.427 9.52 9 9.947 9 11.007v2.694c0 1.06.427 1.486 1.487 1.486h2.693c1.06 0 1.487-.426 1.487-1.486ZM7 6.2V3.175c0-.94-.427-1.32-1.487-1.32H2.82c-1.06 0-1.487.38-1.487 1.32v3.02c0 .947.427 1.32 1.487 1.32h2.693C6.573 7.521 7 7.141 7 6.201Zm0 7.5v-2.692c0-1.06-.427-1.487-1.487-1.487H2.82c-1.06 0-1.487.426-1.487 1.486v2.694c0 1.06.427 1.486 1.487 1.486h2.693c1.06 0 1.487-.426 1.487-1.486Z" stroke="currentColor" stroke-width="1" stroke-linecap="round" stroke-linejoin="round"/></svg>
