<svg fill="none" xmlns="http://www.w3.org/2000/svg" viewBox="0 0 24 24"><path d="M15.36 5.616a2.825 2.825 0 0 1 2.826 2.827 2.83 2.83 0 0 1-2.722 2.826.91.91 0 0 0-.21 0m1.664 7.27a3.907 3.907 0 0 0 1.583-.704c1.26-.944 1.26-2.503 0-3.448-.444-.34-.985-.566-1.559-.695m-7.438-2.528a1.464 1.464 0 0 0-.266 0 3.57 3.57 0 0 1-3.45-3.577A3.585 3.585 0 0 1 9.376 4a3.583 3.583 0 0 1 .13 7.163Zm-4.038 2.98c-1.955 1.309-1.955 3.441 0 4.742 2.22 1.486 5.863 1.486 8.084 0 1.955-1.309 1.955-3.441 0-4.741-2.213-1.478-5.855-1.478-8.084 0Z" stroke="currentColor" stroke-width="1.5" stroke-linecap="round" stroke-linejoin="round"/></svg>
