<svg xmlns="http://www.w3.org/2000/svg" width="575" height="230.211" viewBox="0 0 575 230.211">
  <g id="Group_10" data-name="Group 10" transform="translate(-436.847 -205.768)">
    <path id="Path_11" data-name="Path 11" d="M-48.19-9.516a8.224,8.224,0,0,0,1.525,5.338,5.844,5.844,0,0,0,4.056,2.135A12.07,12.07,0,0,0-36.874-3.05a26.235,26.235,0,0,0,6.557-3.965q-.061.549-.092,1.068t-.031,1.006q0,.671.061,1.311A11.14,11.14,0,0,0-30.134-2.2a26.4,26.4,0,0,1-8.021,3.812,14.251,14.251,0,0,1-7.167.274,8.759,8.759,0,0,1-5.124-3.507Q-52.4-4.331-52.4-9.15a27.488,27.488,0,0,1,1.464-8.6,43.333,43.333,0,0,1,4-8.692,54.224,54.224,0,0,1,5.826-7.991,49.257,49.257,0,0,1,6.985-6.588,35.356,35.356,0,0,1,7.5-4.484,18.374,18.374,0,0,1,7.29-1.647q4.331,0,6.222,2.074a7.162,7.162,0,0,1,1.891,5A14.026,14.026,0,0,1-12.688-34.1a15.378,15.378,0,0,1-4.087,5.307,2.425,2.425,0,0,1-1.769.641,2.006,2.006,0,0,1-1.342-.641,1.924,1.924,0,0,1-.458-1.4,2.339,2.339,0,0,1,.945-1.647,20.591,20.591,0,0,0,1.586-1.647,12.313,12.313,0,0,0,1.372-1.921,11.858,11.858,0,0,0,.945-2.074,6.141,6.141,0,0,0,.366-1.982A3.38,3.38,0,0,0-16.165-42,5.111,5.111,0,0,0-19.764-43a14.272,14.272,0,0,0-5.765,1.4,31.453,31.453,0,0,0-6.283,3.813,46.324,46.324,0,0,0-6.1,5.673,47.129,47.129,0,0,0-5.246,6.985,38.734,38.734,0,0,0-3.66,7.717A24.206,24.206,0,0,0-48.19-9.516Zm18.727,4.575a18.549,18.549,0,0,1,.61-4.544A32.138,32.138,0,0,1-27.206-14.3a34.744,34.744,0,0,1,2.379-4.575,31.225,31.225,0,0,1,2.775-3.843,16.343,16.343,0,0,1,2.837-2.684,4.526,4.526,0,0,1,2.562-1.007q2.2,0,2.2,2.745A10.165,10.165,0,0,1-15.4-19.7a33.2,33.2,0,0,1-2.379,4.484A47.183,47.183,0,0,1-20.923-10.8Q-22.631-8.662-24.1-7.076a14.907,14.907,0,0,1,.976-3.69,35.828,35.828,0,0,1,1.861-4.026,29.56,29.56,0,0,1,2.318-3.66,21.107,21.107,0,0,1,2.348-2.714q.488-.427.183-.793t-.793,0a18.274,18.274,0,0,0-2.714,3.05,33.776,33.776,0,0,0-2.654,4.27,29.415,29.415,0,0,0-2.013,4.819,15.577,15.577,0,0,0-.793,4.7q0,2.013.915,2.5a2.708,2.708,0,0,0,2.226.031,10.463,10.463,0,0,0,2.776-1.556A24.432,24.432,0,0,0-16.836-6.4a1.765,1.765,0,0,1,1.22-.519,1.651,1.651,0,0,1,1.281.519,1.652,1.652,0,0,1,.519,1.281,1.765,1.765,0,0,1-.519,1.22A19.8,19.8,0,0,1-19.581-.031a10.918,10.918,0,0,1-4.88,1.281,4.767,4.767,0,0,1-3.6-1.556A6.654,6.654,0,0,1-29.463-4.941ZM-16.836-6.4q.671-.671,1.464-1.556t1.556-1.83l1.525-1.891q.762-.946,1.372-1.8a9.814,9.814,0,0,0,.793,1.769,9.216,9.216,0,0,1,.793,1.83Q-10.492-8.3-11.864-6.649T-14.335-3.9a1.765,1.765,0,0,1-1.22.519A1.651,1.651,0,0,1-16.836-3.9a1.651,1.651,0,0,1-.518-1.281A1.765,1.765,0,0,1-16.836-6.4Zm14.03-12.322a5.749,5.749,0,0,1-.549,2.288A14.069,14.069,0,0,1-4.88-13.847a9.37,9.37,0,0,1-1.159-3.019,3.118,3.118,0,0,1,.183-1.922q.3-.488-.092-.7a.5.5,0,0,0-.7.213A3.543,3.543,0,0,0-6.923-16.5,12.405,12.405,0,0,0-5.49-12.993a16.739,16.739,0,0,1,1.4,3.141,8.539,8.539,0,0,1,.427,3.63,3.245,3.245,0,0,1-1.007.854,13.348,13.348,0,0,1-1.189.61.434.434,0,0,0-.274.61q.152.427.641.244a6.233,6.233,0,0,0,1.769-.945A16.71,16.71,0,0,0-1.952-6.4a1.765,1.765,0,0,1,1.22-.519A1.651,1.651,0,0,1,.549-6.4a1.651,1.651,0,0,1,.518,1.281A1.765,1.765,0,0,1,.549-3.9a17.033,17.033,0,0,1-4.7,3.416A12.638,12.638,0,0,1-9.638.671a3.461,3.461,0,0,1-2.288-.61,2,2,0,0,1-.7-1.586,2.107,2.107,0,0,1,.946-1.86A2.853,2.853,0,0,1-9.7-3.9a3.77,3.77,0,0,0,.824.031,1.03,1.03,0,0,0,.671-.3,2.089,2.089,0,0,0,.458-.854,5.6,5.6,0,0,0,.183-1.616A7.164,7.164,0,0,0-8.082-9.3q-.518-1.312-1.159-2.684T-10.4-14.762a8.21,8.21,0,0,1-.518-2.867,6.34,6.34,0,0,1,.274-1.83,4.892,4.892,0,0,1,.854-1.647A4.536,4.536,0,0,1-8.357-22.3a4.341,4.341,0,0,1,2.074-.458Q-2.806-22.753-2.806-18.727ZM-1.952-6.4q.671-.671,1.464-1.556t1.556-1.83l1.525-1.891q.762-.946,1.372-1.8a9.814,9.814,0,0,0,.793,1.769,9.216,9.216,0,0,1,.793,1.83Q4.392-8.3,3.02-6.649T.549-3.9a1.765,1.765,0,0,1-1.22.519A1.651,1.651,0,0,1-1.952-3.9,1.651,1.651,0,0,1-2.47-5.185,1.765,1.765,0,0,1-1.952-6.4Zm14.03-12.322a5.749,5.749,0,0,1-.549,2.288A14.069,14.069,0,0,1,10-13.847a9.37,9.37,0,0,1-1.159-3.019,3.118,3.118,0,0,1,.183-1.922q.3-.488-.092-.7a.5.5,0,0,0-.7.213A3.543,3.543,0,0,0,7.96-16.5a12.405,12.405,0,0,0,1.434,3.507,16.739,16.739,0,0,1,1.4,3.141,8.539,8.539,0,0,1,.427,3.63,3.245,3.245,0,0,1-1.007.854,13.348,13.348,0,0,1-1.189.61.434.434,0,0,0-.274.61q.152.427.641.244a6.233,6.233,0,0,0,1.769-.945A16.71,16.71,0,0,0,12.932-6.4a1.765,1.765,0,0,1,1.22-.519,1.651,1.651,0,0,1,1.281.519,1.651,1.651,0,0,1,.518,1.281,1.765,1.765,0,0,1-.518,1.22,17.033,17.033,0,0,1-4.7,3.416A12.638,12.638,0,0,1,5.246.671,3.461,3.461,0,0,1,2.959.061a2,2,0,0,1-.7-1.586A2.107,2.107,0,0,1,3.2-3.385,2.853,2.853,0,0,1,5.185-3.9a3.769,3.769,0,0,0,.824.031,1.03,1.03,0,0,0,.671-.3,2.089,2.089,0,0,0,.458-.854A5.6,5.6,0,0,0,7.32-6.649,7.164,7.164,0,0,0,6.8-9.3q-.518-1.312-1.159-2.684T4.484-14.762a8.21,8.21,0,0,1-.518-2.867,6.34,6.34,0,0,1,.274-1.83,4.892,4.892,0,0,1,.854-1.647A4.536,4.536,0,0,1,6.527-22.3,4.341,4.341,0,0,1,8.6-22.753Q12.078-22.753,12.078-18.727Zm10.065.305a2.778,2.778,0,0,1,1.373-1.495,2.744,2.744,0,0,1,1.434-.153,1.706,1.706,0,0,1,1.464,1.4,4.672,4.672,0,0,1-.488,2.806q-.854,1.891-1.556,3.66T23.18-8.876q-.488,1.556-.763,2.745a8.979,8.979,0,0,0-.275,1.922q0,.732.61.732A2.689,2.689,0,0,0,24.247-4.3q.946-.824,2.227-2.1a1.765,1.765,0,0,1,1.22-.519,1.652,1.652,0,0,1,1.281.519,1.651,1.651,0,0,1,.518,1.281,1.765,1.765,0,0,1-.518,1.22A23.721,23.721,0,0,1,25.223-.732,6.176,6.176,0,0,1,21.838.305,3.775,3.775,0,0,1,19-.793a4.744,4.744,0,0,1-1.067-3.416,7.3,7.3,0,0,1,.4-2.379q.4-1.159.885-2.379Q19.4-9.455,19-9.638t-.7.366A19.31,19.31,0,0,0,17.141-5.8a4.459,4.459,0,0,1-.671.824q-.549.58-1.037,1.067a1.765,1.765,0,0,1-1.22.519A1.651,1.651,0,0,1,12.932-3.9a1.651,1.651,0,0,1-.519-1.281,1.765,1.765,0,0,1,.519-1.22q1.342-1.342,2.684-2.867t2.593-3.111q1.25-1.586,2.257-3.111A24.694,24.694,0,0,0,22.143-18.422Zm1.586-6.039a2.786,2.786,0,0,1,.915-1.769,2.771,2.771,0,0,1,1.952-.732,2.512,2.512,0,0,1,1.8.732,2.009,2.009,0,0,1,.64,1.769,2.786,2.786,0,0,1-.915,1.769,2.692,2.692,0,0,1-1.891.732,2.586,2.586,0,0,1-1.861-.732A2.009,2.009,0,0,1,23.729-24.461ZM26.474-6.4q.671-.671,1.464-1.556t1.556-1.83l1.525-1.891q.762-.946,1.372-1.8a9.814,9.814,0,0,0,.793,1.769,9.216,9.216,0,0,1,.793,1.83Q32.818-8.3,31.445-6.649T28.975-3.9a1.765,1.765,0,0,1-1.22.519A1.651,1.651,0,0,1,26.474-3.9a1.651,1.651,0,0,1-.518-1.281A1.765,1.765,0,0,1,26.474-6.4ZM40.5-18.727a5.749,5.749,0,0,1-.549,2.288,14.069,14.069,0,0,1-1.525,2.592,9.37,9.37,0,0,1-1.159-3.019,3.118,3.118,0,0,1,.183-1.922q.305-.488-.091-.7a.5.5,0,0,0-.7.213,3.543,3.543,0,0,0-.275,2.776,12.405,12.405,0,0,0,1.434,3.507,16.739,16.739,0,0,1,1.4,3.141,8.539,8.539,0,0,1,.427,3.63,3.245,3.245,0,0,1-1.007.854,13.348,13.348,0,0,1-1.189.61.434.434,0,0,0-.274.61q.152.427.64.244a6.233,6.233,0,0,0,1.769-.945A16.709,16.709,0,0,0,41.358-6.4a1.765,1.765,0,0,1,1.22-.519,1.652,1.652,0,0,1,1.281.519,1.652,1.652,0,0,1,.518,1.281,1.765,1.765,0,0,1-.518,1.22,17.033,17.033,0,0,1-4.7,3.416A12.638,12.638,0,0,1,33.672.671a3.461,3.461,0,0,1-2.287-.61,2,2,0,0,1-.7-1.586,2.107,2.107,0,0,1,.945-1.86A2.853,2.853,0,0,1,33.611-3.9a3.769,3.769,0,0,0,.823.031,1.03,1.03,0,0,0,.671-.3,2.089,2.089,0,0,0,.458-.854,5.6,5.6,0,0,0,.183-1.616A7.164,7.164,0,0,0,35.228-9.3q-.519-1.312-1.159-2.684T32.91-14.762a8.21,8.21,0,0,1-.519-2.867,6.34,6.34,0,0,1,.274-1.83,4.892,4.892,0,0,1,.854-1.647,4.536,4.536,0,0,1,1.433-1.19,4.341,4.341,0,0,1,2.074-.458Q40.5-22.753,40.5-18.727Zm18.239,2.5a18.291,18.291,0,0,1-2.776.153Q54.6-16.1,53.223-16.2t-2.776-.152a15.346,15.346,0,0,0-2.745.122,2.258,2.258,0,0,1-1.495-.274,1.812,1.812,0,0,1-.823-1.494,1.692,1.692,0,0,1,.519-1.586,2.831,2.831,0,0,1,1.433-.671,15.345,15.345,0,0,1,2.745-.122q1.4.061,2.776.152T55.6-20.1a18.291,18.291,0,0,0,2.776-.153,2.258,2.258,0,0,1,1.494.274,1.812,1.812,0,0,1,.823,1.494,1.692,1.692,0,0,1-.519,1.586A2.831,2.831,0,0,1,58.743-16.226Zm1.525-12.993a8.583,8.583,0,0,1-.793,3.813A44.946,44.946,0,0,1,57.4-21.045a30.27,30.27,0,0,1-3.05-.031q-1.464-.091-2.5-.152l3.9-8.235A2.541,2.541,0,0,1,57.1-30.958a2.877,2.877,0,0,1,1.464-.152,1.766,1.766,0,0,1,1.25.671A2.423,2.423,0,0,1,60.268-29.219ZM41.358-6.4q1.952-2.013,3.935-4.361A49.061,49.061,0,0,0,48.8-15.433a12.831,12.831,0,0,1,2.5,0q1.342.122,2.562.183a35.136,35.136,0,0,0-2.318,5.429,15.165,15.165,0,0,0-.732,3.6,3.18,3.18,0,0,0,.4,2.013,1.367,1.367,0,0,0,1.128.61q1.525,0,4.331-2.806a1.765,1.765,0,0,1,1.22-.519A1.651,1.651,0,0,1,59.17-6.4a1.651,1.651,0,0,1,.518,1.281A1.765,1.765,0,0,1,59.17-3.9a28.84,28.84,0,0,1-2.379,2.166A12.963,12.963,0,0,1,54.9-.457a5.912,5.912,0,0,1-1.617.61,7.609,7.609,0,0,1-1.494.153,4.883,4.883,0,0,1-3.02-.854,4.923,4.923,0,0,1-1.647-2.2A8.145,8.145,0,0,1,46.6-5.7a13.414,13.414,0,0,1,.366-3.141q.122-.549-.244-.671t-.61.427A7.122,7.122,0,0,0,45.689-5.8q-.427.488-.885.946l-.945.945a1.765,1.765,0,0,1-1.22.519A1.651,1.651,0,0,1,41.358-3.9a1.651,1.651,0,0,1-.519-1.281A1.765,1.765,0,0,1,41.358-6.4Z" transform="translate(721.93 433.75)" fill="#fff"/>
    <path id="Path_1" data-name="Path 1" d="M58.395-90.607q1.2,4-.3,6.6a7.522,7.522,0,0,1-4,3.5,6.76,6.76,0,0,1-5.2-.3q-2.7-1.2-3.9-5a43.888,43.888,0,0,1-1.5-23.5,45.25,45.25,0,0,1,9.7-19.8,49.043,49.043,0,0,1,18.3-13.3,55.314,55.314,0,0,1,24.7-4.2,117.413,117.413,0,0,1,12.3,1.4q5.9,1,11.5,2.4t10.7,2.7a80.574,80.574,0,0,0,9.9,1.9,81.166,81.166,0,0,0-8.4,11.4q-9.6-1.6-19.2-4.2a69.68,69.68,0,0,0-18.2-2.6,48.937,48.937,0,0,0-17.5,3,34.6,34.6,0,0,0-13.1,8.5,28.239,28.239,0,0,0-7,13.5Q55.4-100.606,58.395-90.607ZM174.982-139.8a22.868,22.868,0,0,0-12.8,3.8,43.17,43.17,0,0,0-10.7,10.3,95.531,95.531,0,0,0-9.2,15.2q-4.3,8.7-8.4,18.6t-8.3,20.4q-4.2,10.5-9,20.7-3-1.6-6.2-3t-6.6-3q3.6-7.6,7-15.7t6.8-16.3q5-12.2,10.5-23.7a116.066,116.066,0,0,1,12.2-20.3,58.517,58.517,0,0,1,15-14.1,34.712,34.712,0,0,1,19.1-5.3q6.8,0,10.2,2.8a8.707,8.707,0,0,1,3.4,7,12.719,12.719,0,0,1-2,6.4,18.708,18.708,0,0,1-6.2,6.1,39.126,39.126,0,0,1-10.7,4.5,58.578,58.578,0,0,1-15.5,1.8,35.873,35.873,0,0,1,9.9-9.7,20.794,20.794,0,0,1,11.3-3.5q2,0,1.9-1.5A1.478,1.478,0,0,0,174.982-139.8ZM95.191-39.613q7.2,2.8,13.2,5.4a113.823,113.823,0,0,1-10.8,15.4,81.8,81.8,0,0,1-13.2,12.7,62.4,62.4,0,0,1-15.5,8.7A49.328,49.328,0,0,1,51,5.782a47.887,47.887,0,0,1-16.5-2.6,34.232,34.232,0,0,1-11.8-7,27.956,27.956,0,0,1-7-10.2,32.267,32.267,0,0,1-2.3-12,35.5,35.5,0,0,1,3-14.3,38.03,38.03,0,0,1,8.6-12.3,41.561,41.561,0,0,1,13.6-8.6,48.1,48.1,0,0,1,18-3.2,97.191,97.191,0,0,1,18.9,1.8,121.346,121.346,0,0,1,17,4.6q7.9,2.8,14.8,6t12.5,5.8a7.19,7.19,0,0,1,4,4.2,6.577,6.577,0,0,1-.2,4.8,6.171,6.171,0,0,1-3.4,3.2q-2.4,1-5.6-.6-5.4-2.6-12.2-5.5t-14.4-5.3a133.373,133.373,0,0,0-15.6-3.9,86.637,86.637,0,0,0-16-1.5,35.169,35.169,0,0,0-12.1,2,30.554,30.554,0,0,0-9.4,5.3,22.7,22.7,0,0,0-6,7.8,22.2,22.2,0,0,0-2.1,9.5q0,7.6,6.2,13.4t18.6,5.8a32.787,32.787,0,0,0,12.8-2.6,49.04,49.04,0,0,0,11.7-7,66.158,66.158,0,0,0,10.3-10.4A118.29,118.29,0,0,0,95.191-39.613Zm60.393-22a13.711,13.711,0,0,1-.2,2.6,19.148,19.148,0,0,1-5.5-1.7,4.29,4.29,0,0,1-1.9-1.9,1.436,1.436,0,0,0-2.1-1,1.506,1.506,0,0,0-.9,2.2q1.4,3.4,5.7,4.5t9.1,2.3a32.566,32.566,0,0,1,8.7,3.5q3.9,2.3,4.5,8.3a14.691,14.691,0,0,1-2.1,9.8,42.19,42.19,0,0,1-6.1,7.5q-3.4,3.3-6.4,6.1t-3,5.6q0,1.6.6,2a4.263,4.263,0,0,0,2.2.4q1.6,0,4.9-2.8t7.3-6.8a5.787,5.787,0,0,1,4-1.7,5.414,5.414,0,0,1,4.2,1.7,5.414,5.414,0,0,1,1.7,4.2,5.787,5.787,0,0,1-1.7,4,77.767,77.767,0,0,1-12.3,10.4,20.248,20.248,0,0,1-11.1,3.4,15.6,15.6,0,0,1-9.9-3.2q-4.1-3.2-4.1-10.4a16.937,16.937,0,0,1,3.1-10,55.781,55.781,0,0,1,6.7-7.9q3.6-3.5,6.5-6.2t2.3-5.1a3.483,3.483,0,0,0-2.4-1.9q-2-.7-4.8-1.4t-6.1-1.8a22.879,22.879,0,0,1-6.1-3.1,16.509,16.509,0,0,1-4.6-5,15.009,15.009,0,0,1-1.8-7.8,10.051,10.051,0,0,1,3.3-7.8,10.612,10.612,0,0,1,7.3-3Q155.584-73.609,155.584-61.61Zm-41,27q-3.2-1.6-3.9-4.1a6.675,6.675,0,0,1,.3-4.7,6.172,6.172,0,0,1,3.4-3.2,6.5,6.5,0,0,1,5.4.4,19.744,19.744,0,0,0,4,1.4,20.538,20.538,0,0,0,5,.6,14.809,14.809,0,0,0,4.9-.8,8.063,8.063,0,0,0,3.9-3,21.969,21.969,0,0,0,6.1,3.4q3.3,1.2,6.5,2.2a25.178,25.178,0,0,1-8.3,7.3,29.12,29.12,0,0,1-9.6,3.2,30.2,30.2,0,0,1-9.5-.1A29.585,29.585,0,0,1,114.589-34.613Zm63.993,21.8a5.787,5.787,0,0,1-4,1.7,5.414,5.414,0,0,1-4.2-1.7,5.414,5.414,0,0,1-1.7-4.2,5.787,5.787,0,0,1,1.7-4q4-4,7.3-6.9t7.5-6.3a45.421,45.421,0,0,0-3.4,9.1,35.379,35.379,0,0,0-1,10.1Zm41.6-42.2a50.925,50.925,0,0,0-6,4.1,49.087,49.087,0,0,0-6.4,6.1,48.023,48.023,0,0,0-5.9,8.4,53.063,53.063,0,0,0-4.5,10.8q-.4,1.6-.9,3.9a17.4,17.4,0,0,0-.4,4.5,7.134,7.134,0,0,0,1.2,3.8,4.165,4.165,0,0,0,3.7,1.6q6.2,0,12.2-5.3a72.417,72.417,0,0,0,11.1-12.5,156.385,156.385,0,0,0,9.2-14.6q4.1-7.4,6.7-11.6,2.2-3.6,4.8-4.5a8.019,8.019,0,0,1,4.8-.3q4,1,4.8,4.4a8.858,8.858,0,0,1-.8,6.4q-3.8,7-7.3,12.7t-6.2,10.2q-2.7,4.5-4.4,7.8a12.522,12.522,0,0,0-1.7,5.3q0,2.2,2,2.2a4.528,4.528,0,0,0,1.6-.3,8.993,8.993,0,0,0,2.1-1.3q1.3-1,3.3-2.8t5.2-5a5.787,5.787,0,0,1,4-1.7,5.414,5.414,0,0,1,4.2,1.7,5.414,5.414,0,0,1,1.7,4.2,5.787,5.787,0,0,1-1.7,4,74.3,74.3,0,0,1-12.6,10.6,22.053,22.053,0,0,1-11.8,3.2q-5.6,0-8.8-3.4t-2.8-10.4q.2-1.8-1.2-1.9t-1.8,1.7a10.427,10.427,0,0,0-.2,3.5,14.709,14.709,0,0,0,.6,2.9,41.112,41.112,0,0,1-8.8,5.5,24.272,24.272,0,0,1-10.2,2.1,15.063,15.063,0,0,1-10.6-4.3q-4.6-4.3-4.6-13.3a40.327,40.327,0,0,1,4-16.9,65.438,65.438,0,0,1,10.2-15.8,59.435,59.435,0,0,1,13.7-11.7q7.5-4.6,14.5-4.6a7.644,7.644,0,0,1,5.5,2q2.1,2,1.5,6.2a13.514,13.514,0,0,1-3.6,7.6,44.3,44.3,0,0,1-7.4,6.2q-4.4,3-9.7,6.4a117.027,117.027,0,0,0-10.7,7.8,44.847,44.847,0,0,1,8.7-13.7,41.279,41.279,0,0,1,10.9-8.7q2-1,1.2-2.5A1.588,1.588,0,0,0,220.177-55.011ZM283.97-9.616a35.733,35.733,0,0,0,12.9-2.5,37.826,37.826,0,0,0,12.9-8.9,5.787,5.787,0,0,1,4-1.7,5.414,5.414,0,0,1,4.2,1.7,5.414,5.414,0,0,1,1.7,4.2,5.787,5.787,0,0,1-1.7,4,49.405,49.405,0,0,1-16.6,11.3,46.826,46.826,0,0,1-17.4,3.5q-10.8,0-16.5-4.8t-5.7-13.8a29.27,29.27,0,0,1,.3-4.5q.3-1.9.7-3.7.4-2-1-2.3t-2,1.5a32.071,32.071,0,0,0-.9,5.1,55.378,55.378,0,0,0-.3,5.7l-2,2a5.787,5.787,0,0,1-4,1.7,5.414,5.414,0,0,1-4.2-1.7,5.414,5.414,0,0,1-1.7-4.2,5.787,5.787,0,0,1,1.7-4q3.6-3.6,7.7-8t8.4-9.1q4.3-4.7,8.6-9.1t8.3-7.8a57.89,57.89,0,0,1,11.3-7.6,25.285,25.285,0,0,1,11.5-3q5.8,0,8.7,3.2t2.3,9.4a22.852,22.852,0,0,1-1.7,6.6,27.554,27.554,0,0,1-4.1,6.4,7.624,7.624,0,0,1-4.8,2.8,5.724,5.724,0,0,1-4.1-1.1,5.254,5.254,0,0,1-2-3.7q-.3-2.4,1.9-5.2,2.4-3,2.5-4.5t-1.3-1.5a16.226,16.226,0,0,0-9.1,3.2,41.229,41.229,0,0,0-8.7,8.1,52.856,52.856,0,0,0-6.7,10.5,31.825,31.825,0,0,0-3.2,10.5,11.773,11.773,0,0,0,1.7,8.1Q277.77-9.616,283.97-9.616Zm25.8-11.4a165.354,165.354,0,0,0,12.2-13.9q6.6-8.3,13.6-17.9l-4.4,13.2q-1.8,5.4-3.1,9.1t-2.2,6.3q-.9,2.6-1.7,4.8-1.4,1.6-2.9,3.2t-3.3,3.4a5.787,5.787,0,0,1-4,1.7,5.414,5.414,0,0,1-4.2-1.7,5.414,5.414,0,0,1-1.7-4.2A5.787,5.787,0,0,1,309.767-21.015Zm67.992-79.991q1-1.6-.2-2.5t-2.6,1.1a158.5,158.5,0,0,0-13.4,24.9q-5.4,12.7-9.6,24.9a52.822,52.822,0,0,0-4.8,6.5q-2.2,3.5-3.4,5.7-.8,1.4.4,2.1t2.2-.7q2.6-4.2,6-8.9a67.875,67.875,0,0,1,7.6-8.8,40.488,40.488,0,0,1,9-6.7,21.891,21.891,0,0,1,10.6-2.6q5.8,0,8.2,3.8a13.176,13.176,0,0,1,2,8.4,17.81,17.81,0,0,1-4.8,11.5,84.007,84.007,0,0,1-9.5,8.7q-5.1,4-9.3,7.9a11.862,11.862,0,0,0-4.2,8.9q0,3.2,1.9,4.6a7.066,7.066,0,0,0,4.3,1.4,12.684,12.684,0,0,0,7.3-2.6,69.333,69.333,0,0,0,8.7-7.6,5.787,5.787,0,0,1,4-1.7,5.414,5.414,0,0,1,4.2,1.7,5.414,5.414,0,0,1,1.7,4.2,5.787,5.787,0,0,1-1.7,4,72.521,72.521,0,0,1-12.5,10.4,24.416,24.416,0,0,1-13.1,3.4,20.165,20.165,0,0,1-7.9-1.4,14.254,14.254,0,0,1-5.3-3.7,14.3,14.3,0,0,1-2.9-5.2,20.458,20.458,0,0,1-.9-6.1,22.085,22.085,0,0,1,3.5-12.1,47.1,47.1,0,0,1,8-9.6,74.018,74.018,0,0,1,8.7-6.9,41.552,41.552,0,0,0,5.8-4.4q2.4-2.4,1.2-3.7t-4-.1q-3.4,1.4-8.5,6.3a107.323,107.323,0,0,0-10.3,11.6q-5.2,6.7-10.1,14.4a122.272,122.272,0,0,0-8.1,14.7q-1.2,4-4.2,5.2a6.955,6.955,0,0,1-5.4.2,4.857,4.857,0,0,1-3.4-3.5,7.739,7.739,0,0,1,.4-4.9q4.4-12,9-25.5t9.2-26.4q4.6-12.9,9.4-24.4a131.6,131.6,0,0,1,10-19.7q5-8,10.8-11.2t10.3-2.3a8.991,8.991,0,0,1,6.6,5.3q2.1,4.4-.3,11.8a43.79,43.79,0,0,1-5.3,10.6,119.022,119.022,0,0,1-7.9,10.4q-4.4,5.2-9.1,10.5t-9.1,10.7q2.6-6.6,5.5-12.8t5.6-11.8q2.7-5.6,5.2-10.2T377.759-101.006Zm21.6,83.191a74.552,74.552,0,0,1,1.8-18.6,173.732,173.732,0,0,1,6.1-21.8,232.648,232.648,0,0,1,9-22.1,162.581,162.581,0,0,1,10.6-19.4,77.34,77.34,0,0,1,10.9-13.7q5.4-5.2,9.8-5.2,4.6,0,6.5,2.9t1.5,8.7q-.2,5.4-3.9,13.9a204.419,204.419,0,0,1-9.2,18.3q-5.5,9.8-12.3,20t-13.4,19a187.644,187.644,0,0,1,12.7-33.9q7.9-16.1,17.3-31.3,1-1.6-.2-2.5t-2.6,1.1q-4.2,6.2-9.8,16.2a228.23,228.23,0,0,0-10.5,21.4,220.7,220.7,0,0,0-8.4,22.9,71.374,71.374,0,0,0-3.5,20.5q0,6.4,1.8,8a5.879,5.879,0,0,0,4,1.6q5,0,14.2-9.2a5.787,5.787,0,0,1,4-1.7,5.414,5.414,0,0,1,4.2,1.7,5.414,5.414,0,0,1,1.7,4.2,5.787,5.787,0,0,1-1.7,4,76.833,76.833,0,0,1-8,7.1,44.175,44.175,0,0,1-6.6,4.2,22.678,22.678,0,0,1-5.4,2,20.941,20.941,0,0,1-4.2.5q-7.8,0-11.9-4.9T399.357-17.815Zm-7,5a5.787,5.787,0,0,1-4,1.7,5.414,5.414,0,0,1-4.2-1.7,5.414,5.414,0,0,1-1.7-4.2,5.787,5.787,0,0,1,1.7-4q2.6-2.6,6.5-7t7.9-9.6q-1.2,5.6-1.9,10.8a46.126,46.126,0,0,0-.3,10ZM461.95-60.41q2-4,4.5-4.9a9,9,0,0,1,4.7-.5,5.591,5.591,0,0,1,4.8,4.6q.8,3.8-1.6,9.2-2.8,6.2-5.1,12t-3.9,10.9q-1.6,5.1-2.5,9a29.436,29.436,0,0,0-.9,6.3q0,2.4,2,2.4,1.8,0,4.9-2.7t7.3-6.9a5.787,5.787,0,0,1,4-1.7,5.414,5.414,0,0,1,4.2,1.7,5.414,5.414,0,0,1,1.7,4.2,5.787,5.787,0,0,1-1.7,4,77.766,77.766,0,0,1-12.3,10.4,20.247,20.247,0,0,1-11.1,3.4,12.377,12.377,0,0,1-9.3-3.6q-3.5-3.6-3.5-11.2a23.933,23.933,0,0,1,1.3-7.8q1.3-3.8,2.9-7.8.6-1.6-.7-2.2t-2.3,1.2a63.3,63.3,0,0,0-3.8,11.4,14.622,14.622,0,0,1-2.2,2.7q-1.8,1.9-3.4,3.5a5.787,5.787,0,0,1-4,1.7,5.414,5.414,0,0,1-4.2-1.7,5.414,5.414,0,0,1-1.7-4.2,5.787,5.787,0,0,1,1.7-4q4.4-4.4,8.8-9.4t8.5-10.2q4.1-5.2,7.4-10.2A80.96,80.96,0,0,0,461.95-60.41Zm5.2-19.8a9.134,9.134,0,0,1,3-5.8,9.083,9.083,0,0,1,6.4-2.4,8.236,8.236,0,0,1,5.9,2.4,6.585,6.585,0,0,1,2.1,5.8,9.134,9.134,0,0,1-3,5.8,8.826,8.826,0,0,1-6.2,2.4,8.478,8.478,0,0,1-6.1-2.4A6.586,6.586,0,0,1,467.149-80.208Zm9,59.193q2.2-2.2,4.8-5.1t5.1-6l5-6.2q2.5-3.1,4.5-5.9a32.172,32.172,0,0,0,2.6,5.8,30.208,30.208,0,0,1,2.6,6q-3.8,5.2-8.3,10.6t-8.1,9a5.787,5.787,0,0,1-4,1.7,5.414,5.414,0,0,1-4.2-1.7,5.414,5.414,0,0,1-1.7-4.2A5.787,5.787,0,0,1,476.148-21.015Zm45.995-40.4a18.846,18.846,0,0,1-1.8,7.5,46.126,46.126,0,0,1-5,8.5,30.714,30.714,0,0,1-3.8-9.9q-.6-4.1.6-6.3,1-1.6-.3-2.3a1.636,1.636,0,0,0-2.3.7q-2.2,3.4-.9,9.1a40.672,40.672,0,0,0,4.7,11.5,54.87,54.87,0,0,1,4.6,10.3,27.994,27.994,0,0,1,1.4,11.9,10.64,10.64,0,0,1-3.3,2.8,43.761,43.761,0,0,1-3.9,2,1.424,1.424,0,0,0-.9,2q.5,1.4,2.1.8a20.433,20.433,0,0,0,5.8-3.1,54.788,54.788,0,0,0,5.8-5.1,5.787,5.787,0,0,1,4-1.7,5.414,5.414,0,0,1,4.2,1.7,5.414,5.414,0,0,1,1.7,4.2,5.788,5.788,0,0,1-1.7,4,55.843,55.843,0,0,1-15.4,11.2,41.432,41.432,0,0,1-18,3.8q-5.2,0-7.5-2a6.566,6.566,0,0,1-2.3-5.2,6.909,6.909,0,0,1,3.1-6.1,9.353,9.353,0,0,1,6.5-1.7,12.357,12.357,0,0,0,2.7.1,3.378,3.378,0,0,0,2.2-1,6.848,6.848,0,0,0,1.5-2.8,18.362,18.362,0,0,0,.6-5.3,23.486,23.486,0,0,0-1.7-8.7q-1.7-4.3-3.8-8.8t-3.8-9.1a26.915,26.915,0,0,1-1.7-9.4,20.784,20.784,0,0,1,.9-6,16.038,16.038,0,0,1,2.8-5.4,14.873,14.873,0,0,1,4.7-3.9,14.232,14.232,0,0,1,6.8-1.5Q522.143-74.609,522.143-61.41Zm59.793,8.2a59.965,59.965,0,0,1-9.1.5q-4.5-.1-9-.4t-9.1-.5a50.307,50.307,0,0,0-9,.4,7.4,7.4,0,0,1-4.9-.9q-2.3-1.3-2.7-4.9a5.545,5.545,0,0,1,1.7-5.2,9.28,9.28,0,0,1,4.7-2.2,50.311,50.311,0,0,1,9-.4q4.6.2,9.1.5t9,.4a59.966,59.966,0,0,0,9.1-.5,7.4,7.4,0,0,1,4.9.9q2.3,1.3,2.7,4.9a5.546,5.546,0,0,1-1.7,5.2A9.281,9.281,0,0,1,581.937-53.211Zm5-42.6q.4,5.2-2.6,12.5a147.36,147.36,0,0,1-6.8,14.3,99.215,99.215,0,0,1-10-.1q-4.8-.3-8.2-.5l12.8-27q1.8-4,4.4-4.9a9.433,9.433,0,0,1,4.8-.5,5.789,5.789,0,0,1,4.1,2.2A7.943,7.943,0,0,1,586.936-95.806ZM524.943-21.015q6.4-6.6,12.9-14.3a160.833,160.833,0,0,0,11.5-15.3,42.063,42.063,0,0,1,8.2,0q4.4.4,8.4.6a115.167,115.167,0,0,0-7.6,17.8,49.717,49.717,0,0,0-2.4,11.8q-.2,4.6,1.3,6.6a4.483,4.483,0,0,0,3.7,2q5,0,14.2-9.2a5.787,5.787,0,0,1,4-1.7,5.414,5.414,0,0,1,4.2,1.7,5.414,5.414,0,0,1,1.7,4.2,5.787,5.787,0,0,1-1.7,4,94.55,94.55,0,0,1-7.8,7.1,42.487,42.487,0,0,1-6.2,4.2,19.378,19.378,0,0,1-5.3,2,24.942,24.942,0,0,1-4.9.5q-6.2,0-9.9-2.8a16.139,16.139,0,0,1-5.4-7.2,26.7,26.7,0,0,1-1.7-9.7,43.979,43.979,0,0,1,1.2-10.3q.4-1.8-.8-2.2t-2,1.4q-1.8,4-1.4,10.8-1.4,1.6-2.9,3.1l-3.1,3.1a5.787,5.787,0,0,1-4,1.7,5.414,5.414,0,0,1-4.2-1.7,5.414,5.414,0,0,1-1.7-4.2A5.787,5.787,0,0,1,524.943-21.015Z" transform="translate(423.447 357.968)" fill="#fff"/>
  </g>
</svg>
