<svg xmlns="http://www.w3.org/2000/svg" width="575.064" height="158" viewBox="0 0 575.064 158">
  <path id="Path_1" data-name="Path 1" d="M58.4-90.6q1.2,4-.3,6.6a7.523,7.523,0,0,1-4,3.5,6.761,6.761,0,0,1-5.2-.3q-2.7-1.2-3.9-5a43.893,43.893,0,0,1-1.5-23.5,45.255,45.255,0,0,1,9.7-19.8,49.049,49.049,0,0,1,18.3-13.3,55.321,55.321,0,0,1,24.7-4.2,117.441,117.441,0,0,1,12.3,1.4q5.9,1,11.5,2.4t10.7,2.7a80.579,80.579,0,0,0,9.9,1.9,81.179,81.179,0,0,0-8.4,11.4q-9.6-1.6-19.2-4.2a69.688,69.688,0,0,0-18.2-2.6,48.942,48.942,0,0,0-17.5,3,34.6,34.6,0,0,0-13.1,8.5,28.242,28.242,0,0,0-7,13.5Q55.4-100.6,58.4-90.6ZM175-139.8a22.87,22.87,0,0,0-12.8,3.8,43.175,43.175,0,0,0-10.7,10.3,95.536,95.536,0,0,0-9.2,15.2q-4.3,8.7-8.4,18.6t-8.3,20.4q-4.2,10.5-9,20.7-3-1.6-6.2-3t-6.6-3q3.6-7.6,7-15.7t6.8-16.3q5-12.2,10.5-23.7a116.079,116.079,0,0,1,12.2-20.3,58.523,58.523,0,0,1,15-14.1,34.716,34.716,0,0,1,19.1-5.3q6.8,0,10.2,2.8a8.708,8.708,0,0,1,3.4,7,12.72,12.72,0,0,1-2,6.4,18.71,18.71,0,0,1-6.2,6.1,39.13,39.13,0,0,1-10.7,4.5,58.584,58.584,0,0,1-15.5,1.8,35.877,35.877,0,0,1,9.9-9.7,20.8,20.8,0,0,1,11.3-3.5q2,0,1.9-1.5A1.478,1.478,0,0,0,175-139.8ZM95.2-39.6q7.2,2.8,13.2,5.4A113.835,113.835,0,0,1,97.6-18.8,81.807,81.807,0,0,1,84.4-6.1,62.41,62.41,0,0,1,68.9,2.6,49.333,49.333,0,0,1,51,5.8,47.892,47.892,0,0,1,34.5,3.2a34.235,34.235,0,0,1-11.8-7,27.959,27.959,0,0,1-7-10.2,32.271,32.271,0,0,1-2.3-12,35.507,35.507,0,0,1,3-14.3A38.034,38.034,0,0,1,25-52.6a41.566,41.566,0,0,1,13.6-8.6,48.107,48.107,0,0,1,18-3.2,97.2,97.2,0,0,1,18.9,1.8,121.359,121.359,0,0,1,17,4.6q7.9,2.8,14.8,6t12.5,5.8a7.191,7.191,0,0,1,4,4.2,6.578,6.578,0,0,1-.2,4.8,6.172,6.172,0,0,1-3.4,3.2q-2.4,1-5.6-.6-5.4-2.6-12.2-5.5T88-45.4a133.382,133.382,0,0,0-15.6-3.9,86.645,86.645,0,0,0-16-1.5,35.173,35.173,0,0,0-12.1,2,30.557,30.557,0,0,0-9.4,5.3,22.7,22.7,0,0,0-6,7.8,22.2,22.2,0,0,0-2.1,9.5q0,7.6,6.2,13.4T51.6-7A32.791,32.791,0,0,0,64.4-9.6a49.046,49.046,0,0,0,11.7-7A66.166,66.166,0,0,0,86.4-27,118.294,118.294,0,0,0,95.2-39.6Zm60.4-22a13.711,13.711,0,0,1-.2,2.6,19.152,19.152,0,0,1-5.5-1.7,4.29,4.29,0,0,1-1.9-1.9,1.436,1.436,0,0,0-2.1-1,1.506,1.506,0,0,0-.9,2.2q1.4,3.4,5.7,4.5t9.1,2.3a32.569,32.569,0,0,1,8.7,3.5q3.9,2.3,4.5,8.3a14.693,14.693,0,0,1-2.1,9.8,42.2,42.2,0,0,1-6.1,7.5q-3.4,3.3-6.4,6.1t-3,5.6q0,1.6.6,2a4.263,4.263,0,0,0,2.2.4q1.6,0,4.9-2.8t7.3-6.8a5.788,5.788,0,0,1,4-1.7,5.415,5.415,0,0,1,4.2,1.7,5.415,5.415,0,0,1,1.7,4.2,5.788,5.788,0,0,1-1.7,4A77.773,77.773,0,0,1,166.3-2.4,20.25,20.25,0,0,1,155.2,1a15.6,15.6,0,0,1-9.9-3.2q-4.1-3.2-4.1-10.4a16.939,16.939,0,0,1,3.1-10,55.788,55.788,0,0,1,6.7-7.9q3.6-3.5,6.5-6.2t2.3-5.1a3.483,3.483,0,0,0-2.4-1.9q-2-.7-4.8-1.4t-6.1-1.8a22.882,22.882,0,0,1-6.1-3.1,16.511,16.511,0,0,1-4.6-5,15.011,15.011,0,0,1-1.8-7.8,10.052,10.052,0,0,1,3.3-7.8,10.613,10.613,0,0,1,7.3-3Q155.6-73.6,155.6-61.6Zm-41,27q-3.2-1.6-3.9-4.1a6.676,6.676,0,0,1,.3-4.7,6.172,6.172,0,0,1,3.4-3.2,6.505,6.505,0,0,1,5.4.4,19.748,19.748,0,0,0,4,1.4,20.54,20.54,0,0,0,5,.6,14.81,14.81,0,0,0,4.9-.8,8.064,8.064,0,0,0,3.9-3,21.972,21.972,0,0,0,6.1,3.4q3.3,1.2,6.5,2.2a25.182,25.182,0,0,1-8.3,7.3,29.124,29.124,0,0,1-9.6,3.2,30.206,30.206,0,0,1-9.5-.1A29.586,29.586,0,0,1,114.6-34.6Zm64,21.8a5.788,5.788,0,0,1-4,1.7,5.415,5.415,0,0,1-4.2-1.7,5.415,5.415,0,0,1-1.7-4.2,5.788,5.788,0,0,1,1.7-4q4-4,7.3-6.9t7.5-6.3a45.424,45.424,0,0,0-3.4,9.1,35.382,35.382,0,0,0-1,10.1ZM220.2-55a50.929,50.929,0,0,0-6,4.1,49.1,49.1,0,0,0-6.4,6.1,48.027,48.027,0,0,0-5.9,8.4,53.069,53.069,0,0,0-4.5,10.8q-.4,1.6-.9,3.9a17.4,17.4,0,0,0-.4,4.5,7.134,7.134,0,0,0,1.2,3.8,4.165,4.165,0,0,0,3.7,1.6q6.2,0,12.2-5.3a72.427,72.427,0,0,0,11.1-12.5,156.4,156.4,0,0,0,9.2-14.6q4.1-7.4,6.7-11.6,2.2-3.6,4.8-4.5a8.02,8.02,0,0,1,4.8-.3q4,1,4.8,4.4a8.859,8.859,0,0,1-.8,6.4q-3.8,7-7.3,12.7t-6.2,10.2q-2.7,4.5-4.4,7.8a12.523,12.523,0,0,0-1.7,5.3q0,2.2,2,2.2a4.529,4.529,0,0,0,1.6-.3,8.993,8.993,0,0,0,2.1-1.3q1.3-1,3.3-2.8t5.2-5a5.788,5.788,0,0,1,4-1.7,5.415,5.415,0,0,1,4.2,1.7,5.415,5.415,0,0,1,1.7,4.2,5.788,5.788,0,0,1-1.7,4A74.3,74.3,0,0,1,244-2.2,22.056,22.056,0,0,1,232.2,1q-5.6,0-8.8-3.4t-2.8-10.4q.2-1.8-1.2-1.9T217.6-13a10.428,10.428,0,0,0-.2,3.5,14.708,14.708,0,0,0,.6,2.9,41.118,41.118,0,0,1-8.8,5.5A24.275,24.275,0,0,1,199,1a15.065,15.065,0,0,1-10.6-4.3q-4.6-4.3-4.6-13.3a40.332,40.332,0,0,1,4-16.9A65.446,65.446,0,0,1,198-49.3,59.44,59.44,0,0,1,211.7-61q7.5-4.6,14.5-4.6a7.645,7.645,0,0,1,5.5,2q2.1,2,1.5,6.2a13.516,13.516,0,0,1-3.6,7.6,44.305,44.305,0,0,1-7.4,6.2q-4.4,3-9.7,6.4a117.034,117.034,0,0,0-10.7,7.8,44.852,44.852,0,0,1,8.7-13.7,41.283,41.283,0,0,1,10.9-8.7q2-1,1.2-2.5A1.588,1.588,0,0,0,220.2-55ZM284-9.6a35.737,35.737,0,0,0,12.9-2.5A37.83,37.83,0,0,0,309.8-21a5.788,5.788,0,0,1,4-1.7A5.415,5.415,0,0,1,318-21a5.415,5.415,0,0,1,1.7,4.2,5.788,5.788,0,0,1-1.7,4A49.409,49.409,0,0,1,301.4-1.5,46.832,46.832,0,0,1,284,2q-10.8,0-16.5-4.8t-5.7-13.8a29.277,29.277,0,0,1,.3-4.5q.3-1.9.7-3.7.4-2-1-2.3t-2,1.5a32.081,32.081,0,0,0-.9,5.1,55.382,55.382,0,0,0-.3,5.7l-2,2a5.788,5.788,0,0,1-4,1.7,5.415,5.415,0,0,1-4.2-1.7,5.415,5.415,0,0,1-1.7-4.2,5.788,5.788,0,0,1,1.7-4q3.6-3.6,7.7-8t8.4-9.1q4.3-4.7,8.6-9.1t8.3-7.8a57.9,57.9,0,0,1,11.3-7.6,25.287,25.287,0,0,1,11.5-3q5.8,0,8.7,3.2t2.3,9.4a22.855,22.855,0,0,1-1.7,6.6,27.557,27.557,0,0,1-4.1,6.4,7.625,7.625,0,0,1-4.8,2.8,5.725,5.725,0,0,1-4.1-1.1,5.254,5.254,0,0,1-2-3.7q-.3-2.4,1.9-5.2,2.4-3,2.5-4.5t-1.3-1.5a16.228,16.228,0,0,0-9.1,3.2,41.232,41.232,0,0,0-8.7,8.1,52.864,52.864,0,0,0-6.7,10.5,31.828,31.828,0,0,0-3.2,10.5,11.774,11.774,0,0,0,1.7,8.1Q277.8-9.6,284-9.6ZM309.8-21A165.376,165.376,0,0,0,322-34.9q6.6-8.3,13.6-17.9l-4.4,13.2q-1.8,5.4-3.1,9.1t-2.2,6.3q-.9,2.6-1.7,4.8-1.4,1.6-2.9,3.2T318-12.8a5.788,5.788,0,0,1-4,1.7,5.415,5.415,0,0,1-4.2-1.7,5.415,5.415,0,0,1-1.7-4.2A5.788,5.788,0,0,1,309.8-21Zm68-80q1-1.6-.2-2.5t-2.6,1.1a158.524,158.524,0,0,0-13.4,24.9q-5.4,12.7-9.6,24.9a52.829,52.829,0,0,0-4.8,6.5q-2.2,3.5-3.4,5.7-.8,1.4.4,2.1t2.2-.7q2.6-4.2,6-8.9a67.883,67.883,0,0,1,7.6-8.8,40.492,40.492,0,0,1,9-6.7A21.893,21.893,0,0,1,379.6-66q5.8,0,8.2,3.8a13.178,13.178,0,0,1,2,8.4A17.812,17.812,0,0,1,385-42.3a84.019,84.019,0,0,1-9.5,8.7q-5.1,4-9.3,7.9a11.863,11.863,0,0,0-4.2,8.9q0,3.2,1.9,4.6a7.066,7.066,0,0,0,4.3,1.4,12.685,12.685,0,0,0,7.3-2.6,69.339,69.339,0,0,0,8.7-7.6,5.788,5.788,0,0,1,4-1.7,5.415,5.415,0,0,1,4.2,1.7,5.415,5.415,0,0,1,1.7,4.2,5.788,5.788,0,0,1-1.7,4A72.526,72.526,0,0,1,379.9-2.4,24.418,24.418,0,0,1,366.8,1a20.167,20.167,0,0,1-7.9-1.4,14.255,14.255,0,0,1-5.3-3.7,14.3,14.3,0,0,1-2.9-5.2,20.463,20.463,0,0,1-.9-6.1,22.087,22.087,0,0,1,3.5-12.1,47.1,47.1,0,0,1,8-9.6A74.027,74.027,0,0,1,370-44a41.558,41.558,0,0,0,5.8-4.4q2.4-2.4,1.2-3.7t-4-.1q-3.4,1.4-8.5,6.3a107.318,107.318,0,0,0-10.3,11.6q-5.2,6.7-10.1,14.4A122.282,122.282,0,0,0,336-5.2q-1.2,4-4.2,5.2a6.956,6.956,0,0,1-5.4.2A4.858,4.858,0,0,1,323-3.3a7.74,7.74,0,0,1,.4-4.9q4.4-12,9-25.5t9.2-26.4Q346.2-73,351-84.5a131.6,131.6,0,0,1,10-19.7q5-8,10.8-11.2t10.3-2.3a8.992,8.992,0,0,1,6.6,5.3q2.1,4.4-.3,11.8A43.794,43.794,0,0,1,383.1-90a119.043,119.043,0,0,1-7.9,10.4q-4.4,5.2-9.1,10.5T357-58.4q2.6-6.6,5.5-12.8T368.1-83q2.7-5.6,5.2-10.2T377.8-101Zm21.6,83.2a74.559,74.559,0,0,1,1.8-18.6,173.754,173.754,0,0,1,6.1-21.8,232.655,232.655,0,0,1,9-22.1,162.6,162.6,0,0,1,10.6-19.4,77.349,77.349,0,0,1,10.9-13.7q5.4-5.2,9.8-5.2,4.6,0,6.5,2.9t1.5,8.7q-.2,5.4-3.9,13.9a204.451,204.451,0,0,1-9.2,18.3q-5.5,9.8-12.3,20t-13.4,19a187.675,187.675,0,0,1,12.7-33.9q7.9-16.1,17.3-31.3,1-1.6-.2-2.5t-2.6,1.1q-4.2,6.2-9.8,16.2a228.239,228.239,0,0,0-10.5,21.4,220.713,220.713,0,0,0-8.4,22.9,71.383,71.383,0,0,0-3.5,20.5q0,6.4,1.8,8a5.88,5.88,0,0,0,4,1.6q5,0,14.2-9.2a5.788,5.788,0,0,1,4-1.7A5.415,5.415,0,0,1,440-21a5.415,5.415,0,0,1,1.7,4.2,5.788,5.788,0,0,1-1.7,4,76.847,76.847,0,0,1-8,7.1,44.178,44.178,0,0,1-6.6,4.2,22.683,22.683,0,0,1-5.4,2,20.947,20.947,0,0,1-4.2.5Q408,1,403.9-3.9T399.4-17.8Zm-7,5a5.788,5.788,0,0,1-4,1.7,5.415,5.415,0,0,1-4.2-1.7,5.415,5.415,0,0,1-1.7-4.2,5.788,5.788,0,0,1,1.7-4q2.6-2.6,6.5-7t7.9-9.6q-1.2,5.6-1.9,10.8a46.13,46.13,0,0,0-.3,10ZM462-60.4q2-4,4.5-4.9a9,9,0,0,1,4.7-.5,5.592,5.592,0,0,1,4.8,4.6q.8,3.8-1.6,9.2-2.8,6.2-5.1,12t-3.9,10.9q-1.6,5.1-2.5,9a29.44,29.44,0,0,0-.9,6.3q0,2.4,2,2.4,1.8,0,4.9-2.7t7.3-6.9a5.788,5.788,0,0,1,4-1.7,5.415,5.415,0,0,1,4.2,1.7,5.415,5.415,0,0,1,1.7,4.2,5.788,5.788,0,0,1-1.7,4A77.771,77.771,0,0,1,472.1-2.4,20.25,20.25,0,0,1,461,1a12.379,12.379,0,0,1-9.3-3.6q-3.5-3.6-3.5-11.2a23.937,23.937,0,0,1,1.3-7.8q1.3-3.8,2.9-7.8.6-1.6-.7-2.2t-2.3,1.2A63.312,63.312,0,0,0,445.6-19a14.621,14.621,0,0,1-2.2,2.7q-1.8,1.9-3.4,3.5a5.788,5.788,0,0,1-4,1.7,5.415,5.415,0,0,1-4.2-1.7,5.415,5.415,0,0,1-1.7-4.2,5.788,5.788,0,0,1,1.7-4q4.4-4.4,8.8-9.4t8.5-10.2q4.1-5.2,7.4-10.2A80.967,80.967,0,0,0,462-60.4Zm5.2-19.8a9.135,9.135,0,0,1,3-5.8,9.084,9.084,0,0,1,6.4-2.4,8.237,8.237,0,0,1,5.9,2.4,6.586,6.586,0,0,1,2.1,5.8,9.135,9.135,0,0,1-3,5.8,8.827,8.827,0,0,1-6.2,2.4,8.479,8.479,0,0,1-6.1-2.4A6.586,6.586,0,0,1,467.2-80.2Zm9,59.2q2.2-2.2,4.8-5.1t5.1-6l5-6.2q2.5-3.1,4.5-5.9a32.174,32.174,0,0,0,2.6,5.8,30.215,30.215,0,0,1,2.6,6q-3.8,5.2-8.3,10.6t-8.1,9a5.788,5.788,0,0,1-4,1.7,5.415,5.415,0,0,1-4.2-1.7,5.415,5.415,0,0,1-1.7-4.2A5.788,5.788,0,0,1,476.2-21Zm46-40.4a18.848,18.848,0,0,1-1.8,7.5,46.128,46.128,0,0,1-5,8.5,30.721,30.721,0,0,1-3.8-9.9q-.6-4.1.6-6.3,1-1.6-.3-2.3a1.636,1.636,0,0,0-2.3.7q-2.2,3.4-.9,9.1a40.673,40.673,0,0,0,4.7,11.5A54.879,54.879,0,0,1,518-32.3a28,28,0,0,1,1.4,11.9,10.641,10.641,0,0,1-3.3,2.8,43.766,43.766,0,0,1-3.9,2,1.424,1.424,0,0,0-.9,2q.5,1.4,2.1.8a20.436,20.436,0,0,0,5.8-3.1A54.789,54.789,0,0,0,525-21a5.788,5.788,0,0,1,4-1.7,5.415,5.415,0,0,1,4.2,1.7,5.415,5.415,0,0,1,1.7,4.2,5.788,5.788,0,0,1-1.7,4A55.848,55.848,0,0,1,517.8-1.6a41.437,41.437,0,0,1-18,3.8q-5.2,0-7.5-2A6.566,6.566,0,0,1,490-5a6.91,6.91,0,0,1,3.1-6.1,9.354,9.354,0,0,1,6.5-1.7,12.359,12.359,0,0,0,2.7.1,3.378,3.378,0,0,0,2.2-1,6.85,6.85,0,0,0,1.5-2.8,18.365,18.365,0,0,0,.6-5.3,23.488,23.488,0,0,0-1.7-8.7q-1.7-4.3-3.8-8.8t-3.8-9.1a26.918,26.918,0,0,1-1.7-9.4,20.787,20.787,0,0,1,.9-6,16.039,16.039,0,0,1,2.8-5.4,14.873,14.873,0,0,1,4.7-3.9,14.234,14.234,0,0,1,6.8-1.5Q522.2-74.6,522.2-61.4ZM582-53.2a59.971,59.971,0,0,1-9.1.5q-4.5-.1-9-.4t-9.1-.5a50.314,50.314,0,0,0-9,.4,7.4,7.4,0,0,1-4.9-.9q-2.3-1.3-2.7-4.9a5.546,5.546,0,0,1,1.7-5.2,9.281,9.281,0,0,1,4.7-2.2,50.313,50.313,0,0,1,9-.4q4.6.2,9.1.5t9,.4a59.972,59.972,0,0,0,9.1-.5,7.4,7.4,0,0,1,4.9.9q2.3,1.3,2.7,4.9a5.546,5.546,0,0,1-1.7,5.2A9.282,9.282,0,0,1,582-53.2Zm5-42.6q.4,5.2-2.6,12.5A147.355,147.355,0,0,1,577.6-69a99.247,99.247,0,0,1-10-.1q-4.8-.3-8.2-.5l12.8-27q1.8-4,4.4-4.9a9.434,9.434,0,0,1,4.8-.5,5.789,5.789,0,0,1,4.1,2.2A7.943,7.943,0,0,1,587-95.8ZM525-21q6.4-6.6,12.9-14.3a160.857,160.857,0,0,0,11.5-15.3,42.069,42.069,0,0,1,8.2,0q4.4.4,8.4.6a115.191,115.191,0,0,0-7.6,17.8A49.723,49.723,0,0,0,556-20.4q-.2,4.6,1.3,6.6a4.483,4.483,0,0,0,3.7,2q5,0,14.2-9.2a5.788,5.788,0,0,1,4-1.7,5.415,5.415,0,0,1,4.2,1.7,5.415,5.415,0,0,1,1.7,4.2,5.788,5.788,0,0,1-1.7,4,94.562,94.562,0,0,1-7.8,7.1,42.5,42.5,0,0,1-6.2,4.2,19.383,19.383,0,0,1-5.3,2,24.949,24.949,0,0,1-4.9.5q-6.2,0-9.9-2.8A16.14,16.14,0,0,1,543.9-9a26.7,26.7,0,0,1-1.7-9.7A43.982,43.982,0,0,1,543.4-29q.4-1.8-.8-2.2t-2,1.4q-1.8,4-1.4,10.8-1.4,1.6-2.9,3.1l-3.1,3.1a5.788,5.788,0,0,1-4,1.7,5.415,5.415,0,0,1-4.2-1.7,5.415,5.415,0,0,1-1.7-4.2A5.788,5.788,0,0,1,525-21Z" transform="translate(-13.4 152.2)" fill="#fff"/>
</svg>
