<svg width="344" height="80" viewBox="0 0 344 80" fill="none" xmlns="http://www.w3.org/2000/svg">
<path d="M23.2 31.7C23.6 33.0334 23.5333 34.1334 23 35C22.5333 35.8667 21.8666 36.4667 21 36.8C20.2 37.0667 19.3333 37 18.4 36.6C17.5333 36.2 16.9 35.3667 16.5 34.1C15.1666 30.0334 14.9 26.1334 15.7 22.4C16.5666 18.6 18.2 15.3 20.6 12.5C23 9.63336 26.0333 7.40003 29.7 5.80003C33.4333 4.20002 37.5666 3.50002 42.1 3.70002C44.2333 3.83336 46.2666 4.06669 48.2 4.40003C50.2 4.73336 52.1333 5.13336 54 5.60002C55.8666 6.06669 57.6333 6.53336 59.3 7.00002C61.0333 7.40003 62.7 7.70003 64.3 7.90002C62.7666 9.63336 61.3666 11.5334 60.1 13.6C56.9 13.0667 53.7 12.3667 50.5 11.5C47.3 10.6334 44.2666 10.2 41.4 10.2C38.2 10.2 35.2666 10.7 32.6 11.7C30 12.7 27.8333 14.1334 26.1 16C24.3666 17.8 23.2 20.0334 22.6 22.7C22 25.3667 22.2 28.3667 23.2 31.7ZM81.5 7.10002C79.1666 7.10002 77.0333 7.73336 75.1 9.00003C73.1666 10.2667 71.3666 12 69.7 14.2C68.1 16.3334 66.5666 18.8667 65.1 21.8C63.7 24.6667 62.3 27.7667 60.9 31.1C59.5666 34.3667 58.2 37.7667 56.8 41.3C55.4 44.7667 53.9 48.2 52.2999 51.6C51.3 51.0667 50.2666 50.5667 49.2 50.1C48.1333 49.6334 47.0333 49.1334 45.9 48.6C47.1 46.0667 48.2666 43.4667 49.4 40.8C50.5333 38.0667 51.6666 35.3334 52.7999 32.6C54.4666 28.5334 56.2 24.6 58 20.8C59.8666 16.9334 61.9 13.5334 64.1 10.6C66.3666 7.66669 68.8666 5.33336 71.6 3.60003C74.4 1.80002 77.5999 0.900024 81.2 0.900024C83.4666 0.900024 85.1666 1.36669 86.3 2.30002C87.4333 3.23336 88 4.40003 88 5.80003C88 6.80003 87.6666 7.86669 87 9.00003C86.3333 10.1334 85.3 11.1667 83.9 12.1C82.5 12.9667 80.7 13.7 78.5 14.3C76.3666 14.9 73.8 15.2 70.7999 15.2C72.2666 13.1334 73.9 11.5334 75.7 10.4C77.5666 9.20003 79.4666 8.60003 81.4 8.60003C82.0666 8.60003 82.3666 8.36669 82.2999 7.90002C82.2999 7.36669 82.0333 7.10002 81.5 7.10002ZM41.6 57.2C44 58.1334 46.2 59.0334 48.2 59.9C46.6 62.6334 44.8 65.2 42.8 67.6C40.8 70 38.6 72.1334 36.2 74C33.8 75.8 31.2 77.2334 28.4 78.3C25.6666 79.3667 22.7 79.9 19.5 79.9C16.3666 79.9 13.6 79.4667 11.2 78.6C8.86662 77.7334 6.89995 76.5667 5.29995 75.1C3.76662 73.6334 2.59995 71.9334 1.79995 70C1.06662 68.0667 0.699951 66.0667 0.699951 64C0.699951 61.5334 1.19995 59.1667 2.19995 56.9C3.19995 54.5667 4.63328 52.5 6.49995 50.7C8.36662 48.9 10.6333 47.4667 13.3 46.4C15.9666 45.3334 18.9666 44.8 22.3 44.8C25.5666 44.8 28.7 45.1 31.7 45.7C34.7666 46.3 37.6 47.0667 40.2 48C42.8666 48.9334 45.3333 49.9334 47.6 51C49.9333 52.0667 52.0333 53.0334 53.9 53.9C54.9666 54.4334 55.6333 55.1334 55.9 56C56.1666 56.8667 56.1333 57.6667 55.8 58.4C55.4666 59.1334 54.9 59.6667 54.1 60C53.3 60.3334 52.3666 60.2334 51.3 59.7C49.5 58.8334 47.4666 57.9334 45.2 57C42.9333 56 40.5333 55.1 38 54.3C35.4666 53.5 32.8666 52.8667 30.2 52.4C27.5333 51.8667 24.8666 51.6 22.2 51.6C20 51.6 17.9666 51.9334 16.1 52.6C14.3 53.2667 12.7333 54.1667 11.4 55.3C10.1333 56.3667 9.13328 57.6667 8.39995 59.2C7.73328 60.6667 7.39995 62.2334 7.39995 63.9C7.39995 66.4334 8.43328 68.6667 10.5 70.6C12.5666 72.5334 15.6666 73.5 19.8 73.5C22 73.5 24.1333 73.0667 26.2 72.2C28.2666 71.3334 30.2 70.1667 32 68.7C33.8666 67.2334 35.6 65.5 37.2 63.5C38.8 61.5 40.2666 59.4 41.6 57.2Z" fill="white"/>
<path d="M71.7773 46.2C71.7773 46.7334 71.744 47.1667 71.6773 47.5C70.344 47.2334 69.4106 46.9667 68.8773 46.7C68.4106 46.3667 68.1106 46.0334 67.9773 45.7C67.7773 45.1667 67.4106 45 66.8773 45.2C66.4106 45.4 66.2773 45.7667 66.4773 46.3C66.944 47.4334 67.8773 48.2 69.2773 48.6C70.744 48.9334 72.2773 49.3 73.8773 49.7C75.4773 50.1 76.9106 50.7 78.1773 51.5C79.5106 52.2334 80.2773 53.6 80.4773 55.6C80.6773 57.4667 80.3106 59.1 79.3773 60.5C78.5106 61.9 77.5106 63.1667 76.3773 64.3C75.244 65.3667 74.1773 66.3667 73.1773 67.3C72.1773 68.2334 71.6773 69.1667 71.6773 70.1C71.6773 70.6334 71.7773 70.9667 71.9773 71.1C72.1773 71.2334 72.544 71.3 73.0773 71.3C73.6106 71.3 74.4106 70.8334 75.4773 69.9C76.6106 68.9667 77.844 67.8334 79.1773 66.5C79.7106 65.9667 80.3773 65.7 81.1773 65.7C81.9773 65.6334 82.6773 65.9 83.2773 66.5C83.8773 67.1 84.144 67.8 84.0773 68.6C84.0773 69.4 83.8106 70.0667 83.2773 70.6C80.944 72.9334 78.8773 74.6667 77.0773 75.8C75.344 76.9334 73.5106 77.5 71.5773 77.5C69.644 77.5 67.9773 76.9667 66.5773 75.9C65.244 74.8334 64.5773 73.1 64.5773 70.7C64.5773 68.8334 65.0773 67.1667 66.0773 65.7C67.144 64.2334 68.2773 62.9334 69.4773 61.8C70.6773 60.6 71.744 59.5667 72.6773 58.7C73.6773 57.7667 74.0773 56.9 73.8773 56.1C73.744 55.7 73.344 55.4 72.6773 55.2C72.0106 54.9334 71.2106 54.7 70.2773 54.5C69.344 54.2334 68.3106 53.9334 67.1773 53.6C66.1106 53.2 65.1106 52.6667 64.1773 52C63.244 51.3334 62.4773 50.5 61.8773 49.5C61.2773 48.5 60.9773 47.2 60.9773 45.6C60.9773 44 61.5106 42.7 62.5773 41.7C63.7106 40.7 64.944 40.2 66.2773 40.2C69.944 40.2 71.7773 42.2 71.7773 46.2ZM51.2773 59.7C50.2106 59.1667 49.5773 58.5 49.3773 57.7C49.1106 56.8334 49.144 56.0334 49.4773 55.3C49.8106 54.5667 50.3773 54.0334 51.1773 53.7C51.9773 53.3667 52.8773 53.4334 53.8773 53.9C54.4106 54.1667 55.0773 54.4 55.8773 54.6C56.6773 54.8 57.5106 54.9 58.3773 54.9C59.244 54.9 60.044 54.7667 60.7773 54.5C61.5773 54.2334 62.244 53.7334 62.7773 53C63.7106 53.7334 64.7106 54.3 65.7773 54.7C66.9106 55.1 68.0106 55.4667 69.0773 55.8C67.8773 57.4 66.4773 58.6334 64.8773 59.5C63.344 60.3 61.744 60.8334 60.0773 61.1C58.4773 61.3 56.9106 61.2667 55.3773 61C53.844 60.7334 52.4773 60.3 51.2773 59.7Z" fill="white"/>
<path d="M83.2562 70.6C82.7229 71.1334 82.0562 71.4334 81.2562 71.5C80.4562 71.5 79.7562 71.2 79.1562 70.6C78.5562 70 78.2895 69.3 78.3562 68.5C78.3562 67.7 78.6229 67.0334 79.1562 66.5C80.4895 65.1667 81.6895 64.0334 82.7562 63.1C83.8895 62.1 85.1562 61.0334 86.5562 59.9C85.8229 61.3667 85.2562 62.9 84.8562 64.5C84.4562 66.0334 84.2895 67.7 84.3562 69.5L83.2562 70.6ZM104.056 49.5C103.123 50.0334 102.123 50.7334 101.056 51.6C99.9895 52.4 98.9229 53.4 97.8562 54.6C96.7895 55.8 95.7895 57.2 94.8562 58.8C93.9895 60.4 93.2562 62.2 92.6562 64.2C92.5229 64.7334 92.3562 65.4 92.1562 66.2C92.0229 66.9334 91.9562 67.6667 91.9562 68.4C92.0229 69.1334 92.2229 69.7667 92.5562 70.3C92.9562 70.8334 93.5895 71.1 94.4562 71.1C96.5229 71.1 98.5562 70.2334 100.556 68.5C102.556 66.7 104.39 64.6 106.056 62.2C107.79 59.8 109.323 57.3667 110.656 54.9C112.056 52.4334 113.19 50.5 114.056 49.1C114.79 47.9 115.59 47.1667 116.456 46.9C117.323 46.5667 118.123 46.5 118.856 46.7C120.19 47.0334 120.99 47.7667 121.256 48.9C121.523 50.0334 121.39 51.1 120.856 52.1C119.59 54.4334 118.356 56.5667 117.156 58.5C116.023 60.3667 114.99 62.0667 114.056 63.6C113.19 65.0667 112.456 66.3667 111.856 67.5C111.323 68.5667 111.056 69.4334 111.056 70.1C111.056 70.8334 111.39 71.2 112.056 71.2C112.323 71.2 112.59 71.1667 112.856 71.1C113.123 70.9667 113.456 70.7334 113.856 70.4C114.323 70.0667 114.89 69.6 115.556 69C116.223 68.4 117.09 67.5667 118.156 66.5C118.69 65.9667 119.356 65.7 120.156 65.7C120.956 65.6334 121.656 65.9 122.256 66.5C122.856 67.1 123.123 67.8 123.056 68.6C123.056 69.4 122.79 70.0667 122.256 70.6C119.79 73.0667 117.69 74.8334 115.956 75.9C114.223 76.9667 112.256 77.5 110.056 77.5C108.19 77.5 106.723 76.9334 105.656 75.8C104.59 74.6667 104.123 72.9334 104.256 70.6C104.323 70 104.123 69.7 103.656 69.7C103.19 69.6334 102.89 69.9 102.756 70.5C102.623 71.1 102.59 71.7 102.656 72.3C102.723 72.8334 102.823 73.3 102.956 73.7C101.556 74.8334 100.09 75.7667 98.5562 76.5C97.0229 77.1667 95.3229 77.5 93.4562 77.5C91.4562 77.5 89.6895 76.8 88.1562 75.4C86.6229 73.9334 85.8562 71.7 85.8562 68.7C85.8562 65.9667 86.5229 63.1667 87.8562 60.3C89.1895 57.3667 90.8895 54.7334 92.9562 52.4C95.0229 50 97.2895 48.0334 99.7562 46.5C102.29 44.9667 104.723 44.2 107.056 44.2C108.19 44.2 109.09 44.5334 109.756 45.2C110.49 45.8667 110.756 46.9 110.556 48.3C110.356 49.7667 109.756 51.0334 108.756 52.1C107.756 53.1667 106.523 54.2 105.056 55.2C103.59 56.2 101.956 57.2667 100.156 58.4C98.4229 59.5334 96.6562 60.8334 94.8562 62.3C95.9229 59.7 97.3562 57.4334 99.1562 55.5C101.023 53.5 102.856 52.0334 104.656 51.1C105.323 50.7667 105.523 50.3667 105.256 49.9C104.99 49.3667 104.59 49.2334 104.056 49.5Z" fill="white"/>
<path d="M135.921 72.2C138.054 72.2 140.188 71.8 142.321 71C144.521 70.1334 146.688 68.6334 148.821 66.5C149.354 65.9667 150.021 65.7 150.821 65.7C151.621 65.6334 152.321 65.9 152.921 66.5C153.521 67.1 153.788 67.8 153.721 68.6C153.721 69.4 153.454 70.0667 152.921 70.6C150.321 73.2 147.554 75.1 144.621 76.3C141.688 77.4334 138.788 78 135.921 78C132.321 78 129.554 77.2 127.621 75.6C125.754 74 124.821 71.7 124.821 68.7C124.821 67.8334 124.854 67.1 124.921 66.5C125.054 65.8334 125.188 65.2 125.321 64.6C125.454 63.9334 125.288 63.5667 124.821 63.5C124.354 63.3667 124.021 63.6 123.821 64.2C123.621 64.9334 123.454 65.8 123.321 66.8C123.254 67.7334 123.221 68.6667 123.221 69.6L122.221 70.6C121.688 71.1334 121.021 71.4334 120.221 71.5C119.421 71.5 118.721 71.2 118.121 70.6C117.521 70 117.254 69.3 117.321 68.5C117.321 67.7 117.588 67.0334 118.121 66.5C119.321 65.3 120.588 63.9667 121.921 62.5C123.321 61.0334 124.721 59.5334 126.121 58C127.588 56.4 129.021 54.8667 130.421 53.4C131.888 51.9334 133.288 50.6334 134.621 49.5C136.421 47.9667 138.288 46.7 140.221 45.7C142.221 44.7 144.154 44.2 146.021 44.2C147.954 44.2 149.388 44.7334 150.321 45.8C151.321 46.8667 151.721 48.4334 151.521 50.5C151.388 51.7 151.088 52.8 150.621 53.8C150.221 54.8 149.554 55.8667 148.621 57C147.821 57.8667 147.021 58.3334 146.221 58.4C145.421 58.4667 144.721 58.3 144.121 57.9C143.588 57.4334 143.254 56.8 143.121 56C143.054 55.2 143.388 54.3334 144.121 53.4C144.921 52.4 145.321 51.6667 145.321 51.2C145.388 50.6667 145.188 50.4 144.721 50.4C143.254 50.4 141.721 50.9334 140.121 52C138.588 53.0667 137.154 54.4334 135.821 56.1C134.488 57.7 133.354 59.4334 132.421 61.3C131.554 63.1667 131.021 64.9334 130.821 66.6C130.688 68.2 130.988 69.5334 131.721 70.6C132.454 71.6667 133.854 72.2 135.921 72.2Z" fill="white"/>
<path d="M148.785 66.5C150.652 64.6334 152.685 62.3334 154.885 59.6C157.085 56.8 159.352 53.8 161.685 50.6C160.818 53.2 160.085 55.4 159.485 57.2C158.885 59 158.352 60.5334 157.885 61.8C157.485 63 157.118 64.0334 156.785 64.9C156.518 65.7667 156.252 66.5667 155.985 67.3C155.518 67.8334 155.018 68.3667 154.485 68.9C154.018 69.4334 153.485 70 152.885 70.6C152.352 71.1334 151.685 71.4334 150.885 71.5C150.085 71.5 149.385 71.2 148.785 70.6C148.185 70 147.918 69.3 147.985 68.5C147.985 67.7 148.252 67.0334 148.785 66.5ZM182.785 26.5C183.118 25.9667 183.085 25.5667 182.685 25.3C182.285 24.9667 181.852 25.1334 181.385 25.8C178.718 29.8667 176.485 34.0334 174.685 38.3C172.885 42.5 171.285 46.6334 169.885 50.7C169.018 51.7 168.218 52.8 167.485 54C166.752 55.1334 166.185 56.0667 165.785 56.8C165.518 57.2667 165.585 57.6334 165.985 57.9C166.385 58.1 166.752 57.9667 167.085 57.5C167.952 56.1 168.952 54.6334 170.085 53.1C171.218 51.5 172.485 50.0334 173.885 48.7C175.285 47.3 176.785 46.1667 178.385 45.3C179.985 44.4334 181.752 44 183.685 44C185.618 44 186.985 44.6334 187.785 45.9C188.585 47.1667 188.918 48.5667 188.785 50.1C188.652 52.3667 187.852 54.3 186.385 55.9C184.918 57.4334 183.318 58.8667 181.585 60.2C179.918 61.5334 178.385 62.8667 176.985 64.2C175.585 65.4667 174.885 66.9334 174.885 68.6C174.885 69.6667 175.185 70.4334 175.785 70.9C176.452 71.3667 177.185 71.6 177.985 71.6C179.185 71.6 180.385 71.1667 181.585 70.3C182.852 69.4334 184.318 68.1667 185.985 66.5C186.518 65.9667 187.185 65.7 187.985 65.7C188.785 65.6334 189.485 65.9 190.085 66.5C190.685 67.1 190.952 67.8 190.885 68.6C190.885 69.4 190.618 70.0667 190.085 70.6C187.752 72.9334 185.652 74.6667 183.785 75.8C181.985 76.9334 179.818 77.5 177.285 77.5C175.752 77.5 174.418 77.2667 173.285 76.8C172.218 76.3334 171.352 75.7334 170.685 75C170.018 74.2 169.518 73.3334 169.185 72.4C168.918 71.4 168.785 70.3667 168.785 69.3C168.785 67.1 169.352 65.1 170.485 63.3C171.685 61.4334 173.018 59.8334 174.485 58.5C176.018 57.1 177.485 55.9334 178.885 55C180.285 54.0667 181.252 53.3334 181.785 52.8C182.585 52 182.785 51.4 182.385 51C181.985 50.5334 181.318 50.5 180.385 50.9C179.252 51.3667 177.818 52.4334 176.085 54.1C174.418 55.7 172.718 57.6334 170.985 59.9C169.252 62.1 167.552 64.5 165.885 67.1C164.285 69.6334 162.952 72.0667 161.885 74.4C161.485 75.7334 160.785 76.6 159.785 77C158.785 77.4 157.885 77.4334 157.085 77.1C156.152 76.7667 155.585 76.2 155.385 75.4C155.185 74.5334 155.252 73.7 155.585 72.9C157.052 68.9 158.552 64.6667 160.085 60.2C161.618 55.6667 163.152 51.2667 164.685 47C166.218 42.6667 167.785 38.6 169.385 34.8C170.985 30.9334 172.652 27.6334 174.385 24.9C176.052 22.2334 177.852 20.3667 179.785 19.3C181.718 18.2334 183.418 17.8667 184.885 18.2C186.418 18.4667 187.518 19.3334 188.185 20.8C188.918 22.2667 188.885 24.2334 188.085 26.7C187.485 28.5 186.585 30.2667 185.385 32C184.252 33.7334 182.952 35.4667 181.485 37.2C180.018 38.9334 178.485 40.7 176.885 42.5C175.352 44.2334 173.852 46 172.385 47.8C173.252 45.6 174.152 43.4667 175.085 41.4C176.085 39.3334 177.018 37.3667 177.885 35.5C178.818 33.6334 179.685 31.9334 180.485 30.4C181.352 28.8667 182.118 27.5667 182.785 26.5Z" fill="white"/>
<path d="M190.092 70.6C189.559 71.1334 188.892 71.4334 188.092 71.5C187.292 71.5 186.592 71.2 185.992 70.6C185.392 70 185.125 69.3 185.192 68.5C185.192 67.7 185.459 67.0334 185.992 66.5C187.459 65.0334 188.959 63.4667 190.492 61.8C192.025 60.1334 193.492 58.4334 194.892 56.7C196.359 54.9667 197.692 53.2667 198.892 51.6C200.092 49.9334 201.059 48.3334 201.792 46.8C202.459 45.4667 203.192 44.6667 203.992 44.4C204.859 44.0667 205.659 43.9667 206.392 44.1C207.725 44.3667 208.559 45.0667 208.892 46.2C209.292 47.3334 209.225 48.4 208.692 49.4C207.492 51.8 206.325 54.0667 205.192 56.2C204.125 58.3334 203.159 60.2667 202.292 62C201.425 63.7334 200.725 65.2667 200.192 66.6C199.659 67.9334 199.425 69.0334 199.492 69.9C199.492 70.8334 199.892 71.3 200.692 71.3C201.359 71.3 202.059 71.1 202.792 70.7C203.592 70.3 204.425 69.7334 205.292 69C205.292 71.2667 205.625 73.1667 206.292 74.7C203.825 76.5667 201.492 77.5 199.292 77.5C197.692 77.5 196.192 77.0334 194.792 76.1C193.392 75.1 192.692 73.4334 192.692 71.1C192.692 69.5667 192.959 68.0667 193.492 66.6C194.092 65.1334 194.759 63.6334 195.492 62.1C195.759 61.5667 195.692 61.2 195.292 61C194.892 60.8 194.525 60.9667 194.192 61.5C193.725 62.3 193.225 63.3667 192.692 64.7C192.159 66.0334 191.692 67.6 191.292 69.4L190.092 70.6ZM234.192 60.4C233.392 60.4 232.925 60.0334 232.792 59.3C232.659 58.5 232.725 57.6334 232.992 56.7C233.259 55.7 233.659 54.7334 234.192 53.8C234.792 52.8 235.392 52.1 235.992 51.7C236.459 51.3667 236.559 51 236.292 50.6C236.092 50.2 235.759 50.1334 235.292 50.4C234.359 50.9334 233.525 51.8334 232.792 53.1C232.059 54.3 231.559 55.5667 231.292 56.9C231.092 58.1667 231.159 59.3 231.492 60.3C231.825 61.3 232.559 61.8 233.692 61.8C233.959 61.8 234.225 61.8 234.492 61.8C234.825 61.8 235.159 61.7334 235.492 61.6C236.559 61.3334 237.425 61.4667 238.092 62C238.825 62.4667 239.259 63.0667 239.392 63.8C239.592 64.5334 239.492 65.3 239.092 66.1C238.692 66.8334 237.959 67.3334 236.892 67.6C233.625 68.4 231.092 68.3667 229.292 67.5C227.559 66.6334 226.359 65.3334 225.692 63.6C225.025 61.8667 224.859 59.9 225.192 57.7C225.525 55.4334 226.159 53.3 227.092 51.3C228.025 49.3 229.225 47.6334 230.692 46.3C232.159 44.9 233.692 44.2 235.292 44.2C236.292 44.2 237.159 44.5334 237.892 45.2C238.625 45.8667 239.092 46.8667 239.292 48.2C239.559 49.4667 239.459 51.0667 238.992 53C238.592 54.9334 237.725 57.2 236.392 59.8C236.125 59.9334 235.792 60.0667 235.392 60.2C234.992 60.3334 234.592 60.4 234.192 60.4ZM213.892 77.5C212.959 77.5 212.059 77.3667 211.192 77.1C210.392 76.8334 209.659 76.4 208.992 75.8C208.325 75.1334 207.792 74.2667 207.392 73.2C206.992 72.0667 206.792 70.6667 206.792 69C206.792 66.5334 207.192 63.9 207.992 61.1C208.859 58.2334 209.925 55.6 211.192 53.2C212.525 50.8 213.925 48.8 215.392 47.2C216.859 45.6 218.259 44.8 219.592 44.8C220.792 44.8 221.625 45.1667 222.092 45.9C222.559 46.5667 222.792 47.3 222.792 48.1C222.792 49.3667 222.559 50.7667 222.092 52.3C221.692 53.7667 221.125 55.3334 220.392 57C219.659 58.6 218.792 60.2334 217.792 61.9C216.792 63.5 215.692 65.0667 214.492 66.6C214.692 64.0667 215.192 61.6667 215.992 59.4C216.792 57.0667 217.892 54.7334 219.292 52.4C219.625 51.8667 219.559 51.5 219.092 51.3C218.692 51.1 218.325 51.2667 217.992 51.8C216.592 54 215.359 56.5667 214.292 59.5C213.292 62.4334 212.792 65.3 212.792 68.1C212.792 69.5 213.192 70.4667 213.992 71C214.792 71.4667 215.792 71.6 216.992 71.4C218.259 71.1334 219.592 70.5334 220.992 69.6C222.459 68.6 223.825 67.3 225.092 65.7C225.625 66.6334 226.325 67.4334 227.192 68.1C228.059 68.7 229.125 69.1334 230.392 69.4C225.592 74.8 220.092 77.5 213.892 77.5Z" fill="white"/>
<path d="M259.51 49.5C258.577 50.0334 257.577 50.7334 256.51 51.6C255.443 52.4 254.377 53.4 253.31 54.6C252.243 55.8 251.243 57.2 250.31 58.8C249.443 60.4 248.71 62.2 248.11 64.2C247.977 64.7334 247.81 65.4 247.61 66.2C247.477 66.9334 247.41 67.6667 247.41 68.4C247.477 69.1334 247.677 69.7667 248.01 70.3C248.41 70.8334 249.043 71.1 249.91 71.1C251.977 71.1 254.01 70.2334 256.01 68.5C258.01 66.7 259.843 64.6 261.51 62.2C263.243 59.8 264.777 57.3667 266.11 54.9C267.51 52.4334 268.643 50.5 269.51 49.1C270.243 47.9 271.043 47.1667 271.91 46.9C272.777 46.5667 273.577 46.5 274.31 46.7C275.643 47.0334 276.443 47.7667 276.71 48.9C276.977 50.0334 276.843 51.1 276.31 52.1C275.043 54.4334 273.81 56.5667 272.61 58.5C271.477 60.3667 270.443 62.0667 269.51 63.6C268.643 65.0667 267.91 66.3667 267.31 67.5C266.777 68.5667 266.51 69.4334 266.51 70.1C266.51 70.8334 266.843 71.2 267.51 71.2C267.777 71.2 268.043 71.1667 268.31 71.1C268.577 70.9667 268.91 70.7334 269.31 70.4C269.777 70.0667 270.343 69.6 271.01 69C271.677 68.4 272.543 67.5667 273.61 66.5C274.143 65.9667 274.81 65.7 275.61 65.7C276.41 65.6334 277.11 65.9 277.71 66.5C278.31 67.1 278.577 67.8 278.51 68.6C278.51 69.4 278.243 70.0667 277.71 70.6C275.243 73.0667 273.143 74.8334 271.41 75.9C269.677 76.9667 267.71 77.5 265.51 77.5C263.643 77.5 262.177 76.9334 261.11 75.8C260.043 74.6667 259.577 72.9334 259.71 70.6C259.777 70 259.577 69.7 259.11 69.7C258.643 69.6334 258.343 69.9 258.21 70.5C258.077 71.1 258.043 71.7 258.11 72.3C258.177 72.8334 258.277 73.3 258.41 73.7C257.01 74.8334 255.543 75.7667 254.01 76.5C252.477 77.1667 250.777 77.5 248.91 77.5C246.91 77.5 245.143 76.8 243.61 75.4C242.077 73.9334 241.31 71.7 241.31 68.7C241.31 65.9667 241.977 63.1667 243.31 60.3C244.643 57.3667 246.343 54.7334 248.41 52.4C250.477 50 252.743 48.0334 255.21 46.5C257.743 44.9667 260.177 44.2 262.51 44.2C263.643 44.2 264.543 44.5334 265.21 45.2C265.877 45.8667 266.143 46.9 266.01 48.3C265.877 49.5667 265.177 50.9334 263.91 52.4C262.71 53.8667 261.277 55.3 259.61 56.7C257.943 58.1 256.21 59.4 254.41 60.6C252.677 61.8 251.177 62.7334 249.91 63.4C250.443 62.1334 251.11 60.8667 251.91 59.6C252.71 58.2667 253.543 57.0667 254.41 56C255.343 54.8667 256.277 53.9 257.21 53.1C258.21 52.2334 259.177 51.5667 260.11 51.1C260.777 50.7667 260.977 50.3667 260.71 49.9C260.443 49.3667 260.043 49.2334 259.51 49.5ZM259.71 70.7C259.71 70.8334 259.677 70.9334 259.61 71C259.61 70.9334 259.61 70.9 259.61 70.9C259.677 70.8334 259.71 70.7667 259.71 70.7ZM236.91 67.6C235.777 67.8667 234.877 67.7667 234.21 67.3C233.543 66.7667 233.143 66.1334 233.01 65.4C232.81 64.6667 232.91 63.9334 233.31 63.2C233.71 62.4 234.443 61.8667 235.51 61.6C236.377 61.4 237.41 61.0667 238.61 60.6C239.743 60.1334 240.943 59.6 242.21 59C240.943 61.6 240.177 64.1334 239.91 66.6C239.377 66.8 238.91 67 238.51 67.2C238.043 67.3334 237.51 67.4667 236.91 67.6Z" fill="white"/>
<path d="M280.29 71.1C280.29 69.5667 280.556 68.0667 281.09 66.6C281.69 65.1334 282.356 63.6334 283.09 62.1C283.356 61.5667 283.29 61.2 282.89 61C282.49 60.8 282.123 60.9667 281.79 61.5C281.323 62.3 280.823 63.3667 280.29 64.7C279.756 66.0334 279.29 67.6 278.89 69.4L277.69 70.6C277.156 71.1334 276.49 71.4334 275.69 71.5C274.89 71.5 274.19 71.2 273.59 70.6C272.99 70 272.723 69.3 272.79 68.5C272.79 67.7 273.056 67.0334 273.59 66.5C275.056 65.0334 276.556 63.4667 278.09 61.8C279.623 60.1334 281.09 58.4334 282.49 56.7C283.956 54.9667 285.29 53.2667 286.49 51.6C287.69 49.9334 288.656 48.3334 289.39 46.8C290.056 45.4667 290.79 44.6667 291.59 44.4C292.456 44.0667 293.256 43.9667 293.99 44.1C295.323 44.3667 296.156 45.0667 296.49 46.2C296.89 47.3334 296.823 48.4 296.29 49.4C295.09 51.8 293.923 54.0667 292.79 56.2C291.723 58.3334 290.756 60.2667 289.89 62C289.023 63.7334 288.323 65.2667 287.79 66.6C287.256 67.9334 287.023 69.0334 287.09 69.9C287.09 70.5667 287.423 71 288.09 71.2C288.756 71.4 289.623 71.3667 290.69 71.1C291.756 70.7667 292.956 70.1667 294.29 69.3C295.69 68.3667 297.09 67.1334 298.49 65.6C299.023 66.5334 299.723 67.3334 300.59 68C301.456 68.6 302.523 69.0334 303.79 69.3C301.39 71.9667 298.756 74 295.89 75.4C293.023 76.8 290.023 77.5 286.89 77.5C285.29 77.5 283.79 77.0334 282.39 76.1C280.99 75.1 280.29 73.4334 280.29 71.1ZM307.69 60.4C306.89 60.4 306.423 60.0334 306.29 59.3C306.156 58.5 306.223 57.6334 306.49 56.7C306.756 55.7 307.156 54.7334 307.69 53.8C308.29 52.8 308.89 52.1 309.49 51.7C309.956 51.3667 310.056 51 309.79 50.6C309.59 50.2 309.256 50.1334 308.79 50.4C307.856 50.9334 307.023 51.8334 306.29 53.1C305.556 54.3 305.056 55.5667 304.79 56.9C304.59 58.1667 304.656 59.3 304.99 60.3C305.323 61.3 306.056 61.8 307.19 61.8C307.456 61.8 307.723 61.8 307.99 61.8C308.323 61.8 308.656 61.7334 308.99 61.6C310.056 61.3334 310.923 61.4667 311.59 62C312.323 62.4667 312.756 63.0667 312.89 63.8C313.09 64.5334 312.99 65.3 312.59 66.1C312.19 66.8334 311.456 67.3334 310.39 67.6C307.123 68.4 304.59 68.3667 302.79 67.5C301.056 66.6334 299.856 65.3334 299.19 63.6C298.523 61.8667 298.356 59.9 298.69 57.7C299.023 55.4334 299.656 53.3 300.59 51.3C301.523 49.3 302.723 47.6334 304.19 46.3C305.656 44.9 307.19 44.2 308.79 44.2C309.79 44.2 310.656 44.5334 311.39 45.2C312.123 45.8667 312.59 46.8667 312.79 48.2C313.056 49.4667 312.956 51.0667 312.49 53C312.09 54.9334 311.223 57.2 309.89 59.8C309.623 59.9334 309.29 60.0667 308.89 60.2C308.49 60.3334 308.09 60.4 307.69 60.4Z" fill="white"/>
<path d="M341.448 50.5C341.114 53.6334 339.481 56.4 336.548 58.8C333.681 61.1334 329.014 63.1667 322.548 64.9C323.281 62.2334 324.648 59.6334 326.648 57.1C328.981 56.3 330.881 55.4667 332.348 54.6C333.881 53.6667 334.814 52.8334 335.148 52.1C335.414 51.5667 335.381 51.1334 335.048 50.8C334.781 50.4667 334.314 50.3667 333.648 50.5C332.181 50.7667 330.714 51.5 329.248 52.7C327.781 53.8334 326.414 55.2 325.148 56.8C323.948 58.4 322.914 60.1 322.048 61.9C321.248 63.7 320.781 65.3667 320.648 66.9C320.581 68.4334 320.914 69.7 321.648 70.7C322.448 71.7 323.848 72.2 325.848 72.2C327.981 72.2 330.114 71.8 332.248 71C334.448 70.1334 336.614 68.6334 338.748 66.5C339.281 65.9667 339.948 65.7 340.748 65.7C341.548 65.6334 342.248 65.9 342.848 66.5C343.448 67.1 343.714 67.8 343.648 68.6C343.648 69.4 343.381 70.0667 342.848 70.6C340.248 73.2 337.481 75.1 334.548 76.3C331.614 77.4334 328.714 78 325.848 78C322.248 78 319.481 77.2 317.548 75.6C315.681 74 314.748 71.7 314.748 68.7C314.748 66.6334 315.048 64.6334 315.648 62.7C316.314 60.7667 317.114 58.9667 318.048 57.3C319.048 55.6334 320.114 54.1667 321.248 52.9C322.448 51.5667 323.548 50.4334 324.548 49.5C326.348 47.9667 328.214 46.7 330.148 45.7C332.148 44.7 334.081 44.2 335.948 44.2C337.881 44.2 339.314 44.7334 340.248 45.8C341.248 46.8667 341.648 48.4334 341.448 50.5ZM310.348 67.6C309.214 67.8667 308.314 67.7667 307.648 67.3C306.981 66.7667 306.581 66.1334 306.448 65.4C306.248 64.6667 306.348 63.9334 306.748 63.2C307.148 62.4 307.881 61.8667 308.948 61.6C309.614 61.4667 310.481 61.2667 311.548 61C312.548 60.7334 313.714 60.4 315.048 60C314.114 62.5334 313.548 64.8334 313.348 66.9L310.348 67.6Z" fill="white"/>
</svg>
