<svg fill="none" xmlns="http://www.w3.org/2000/svg" viewBox="0 0 344 80"><path d="M23.2 31.7c.4 1.333.333 2.433-.2 3.3-.467.867-1.133 1.467-2 1.8-.8.267-1.667.2-2.6-.2-.867-.4-1.5-1.233-1.9-2.5-1.333-4.067-1.6-7.967-.8-11.7.867-3.8 2.5-7.1 4.9-9.9 2.4-2.867 5.433-5.1 9.1-6.7 3.733-1.6 7.867-2.3 12.4-2.1 2.133.133 4.167.367 6.1.7 2 .333 3.933.733 5.8 1.2 1.867.467 3.633.933 5.3 1.4 1.733.4 3.4.7 5 .9a40.583 40.583 0 0 0-4.2 5.7c-3.2-.533-6.4-1.233-9.6-2.1-3.2-.867-6.233-1.3-9.1-1.3-3.2 0-6.133.5-8.8 1.5-2.6 1-4.767 2.433-6.5 4.3-1.733 1.8-2.9 4.033-3.5 6.7-.6 2.667-.4 5.667.6 9ZM81.5 7.1c-2.333 0-4.467.633-6.4 1.9-1.933 1.267-3.733 3-5.4 5.2-1.6 2.133-3.133 4.667-4.6 7.6-1.4 2.867-2.8 5.967-4.2 9.3-1.333 3.267-2.7 6.667-4.1 10.2-1.4 3.467-2.9 6.9-4.5 10.3a44.43 44.43 0 0 0-3.1-1.5 131.679 131.679 0 0 1-3.3-1.5c1.2-2.533 2.367-5.133 3.5-7.8l3.4-8.2c1.667-4.067 3.4-8 5.2-11.8 1.867-3.867 3.9-7.267 6.1-10.2 2.267-2.933 4.767-5.267 7.5-7 2.8-1.8 6-2.7 9.6-2.7 2.267 0 3.967.467 5.1 1.4 1.133.933 1.7 2.1 1.7 3.5 0 1-.333 2.067-1 3.2s-1.7 2.167-3.1 3.1c-1.4.867-3.2 1.6-5.4 2.2-2.133.6-4.7.9-7.7.9 1.467-2.067 3.1-3.667 4.9-4.8 1.867-1.2 3.767-1.8 5.7-1.8.667 0 .967-.233.9-.7 0-.533-.267-.8-.8-.8ZM41.6 57.2c2.4.933 4.6 1.833 6.6 2.7-1.6 2.733-3.4 5.3-5.4 7.7-2 2.4-4.2 4.533-6.6 6.4-2.4 1.8-5 3.233-7.8 4.3-2.733 1.067-5.7 1.6-8.9 1.6-3.133 0-5.9-.433-8.3-1.3-2.333-.867-4.3-2.033-5.9-3.5A14.842 14.842 0 0 1 1.8 70a16.78 16.78 0 0 1-1.1-6c0-2.467.5-4.833 1.5-7.1 1-2.333 2.433-4.4 4.3-6.2 1.867-1.8 4.133-3.233 6.8-4.3 2.667-1.067 5.667-1.6 9-1.6 3.267 0 6.4.3 9.4.9 3.067.6 5.9 1.367 8.5 2.3a77.637 77.637 0 0 1 7.4 3 1198.39 1198.39 0 0 1 6.3 2.9c1.067.533 1.733 1.233 2 2.1.267.867.233 1.667-.1 2.4-.333.733-.9 1.267-1.7 1.6-.8.333-1.733.233-2.8-.3-1.8-.867-3.833-1.767-6.1-2.7-2.267-1-4.667-1.9-7.2-2.7a60.521 60.521 0 0 0-7.8-1.9 40.703 40.703 0 0 0-8-.8c-2.2 0-4.233.333-6.1 1-1.8.667-3.367 1.567-4.7 2.7a11.543 11.543 0 0 0-3 3.9c-.667 1.467-1 3.033-1 4.7 0 2.533 1.033 4.767 3.1 6.7 2.067 1.933 5.167 2.9 9.3 2.9 2.2 0 4.333-.433 6.4-1.3s4-2.033 5.8-3.5c1.867-1.467 3.6-3.2 5.2-5.2s3.067-4.1 4.4-6.3Z" fill="#fff"/><path d="M71.777 46.2c0 .533-.033.967-.1 1.3-1.333-.267-2.266-.533-2.8-.8-.466-.333-.766-.667-.9-1-.2-.533-.566-.7-1.1-.5-.466.2-.6.567-.4 1.1.467 1.133 1.4 1.9 2.8 2.3 1.467.333 3 .7 4.6 1.1 1.6.4 3.034 1 4.3 1.8 1.334.733 2.1 2.1 2.3 4.1.2 1.867-.166 3.5-1.1 4.9a20.932 20.932 0 0 1-3 3.8c-1.133 1.067-2.2 2.067-3.2 3-1 .933-1.5 1.867-1.5 2.8 0 .533.1.867.3 1 .2.133.567.2 1.1.2.534 0 1.334-.467 2.4-1.4 1.134-.933 2.367-2.067 3.7-3.4.534-.533 1.2-.8 2-.8.8-.067 1.5.2 2.1.8.6.6.867 1.3.8 2.1 0 .8-.266 1.467-.8 2-2.333 2.333-4.4 4.067-6.2 5.2-1.733 1.133-3.566 1.7-5.5 1.7-1.933 0-3.6-.533-5-1.6-1.333-1.067-2-2.8-2-5.2 0-1.867.5-3.533 1.5-5a27.979 27.979 0 0 1 3.4-3.9c1.2-1.2 2.267-2.233 3.2-3.1 1-.933 1.4-1.8 1.2-2.6-.133-.4-.533-.7-1.2-.9-.666-.267-1.466-.5-2.4-.7a413.04 413.04 0 0 1-3.1-.9 12.982 12.982 0 0 1-3-1.6 8.255 8.255 0 0 1-2.3-2.5c-.6-1-.9-2.3-.9-3.9s.534-2.9 1.6-3.9c1.134-1 2.367-1.5 3.7-1.5 3.667 0 5.5 2 5.5 6Zm-20.5 13.5c-1.066-.533-1.7-1.2-1.9-2-.266-.867-.233-1.667.1-2.4.334-.733.9-1.267 1.7-1.6.8-.333 1.7-.267 2.7.2.534.267 1.2.5 2 .7.8.2 1.634.3 2.5.3.867 0 1.667-.133 2.4-.4.8-.267 1.467-.767 2-1.5.934.733 1.934 1.3 3 1.7 1.134.4 2.234.767 3.3 1.1-1.2 1.6-2.6 2.833-4.2 3.7a15.668 15.668 0 0 1-4.8 1.6c-1.6.2-3.166.167-4.7-.1-1.533-.267-2.9-.7-4.1-1.3Z" fill="#fff"/><path d="M83.256 70.6c-.533.533-1.2.833-2 .9-.8 0-1.5-.3-2.1-.9-.6-.6-.867-1.3-.8-2.1 0-.8.267-1.467.8-2a75.543 75.543 0 0 1 3.6-3.4c1.133-1 2.4-2.067 3.8-3.2-.733 1.467-1.3 3-1.7 4.6-.4 1.533-.566 3.2-.5 5l-1.1 1.1Zm20.8-21.1c-.933.533-1.933 1.233-3 2.1-1.066.8-2.133 1.8-3.2 3-1.066 1.2-2.066 2.6-3 4.2-.866 1.6-1.6 3.4-2.2 5.4l-.5 2c-.133.733-.2 1.467-.2 2.2.067.733.267 1.367.6 1.9.4.533 1.034.8 1.9.8 2.067 0 4.1-.867 6.1-2.6 2-1.8 3.834-3.9 5.5-6.3a66.267 66.267 0 0 0 4.6-7.3c1.4-2.467 2.534-4.4 3.4-5.8.734-1.2 1.534-1.933 2.4-2.2.867-.333 1.667-.4 2.4-.2 1.334.333 2.134 1.067 2.4 2.2.267 1.133.134 2.2-.4 3.2a127.127 127.127 0 0 1-3.7 6.4 3792.614 3792.614 0 0 1-3.1 5.1 97.99 97.99 0 0 0-2.2 3.9c-.533 1.067-.8 1.933-.8 2.6 0 .733.334 1.1 1 1.1.267 0 .534-.033.8-.1.267-.133.6-.367 1-.7.467-.333 1.034-.8 1.7-1.4.667-.6 1.534-1.433 2.6-2.5.534-.533 1.2-.8 2-.8.8-.067 1.5.2 2.1.8.6.6.867 1.3.8 2.1 0 .8-.266 1.467-.8 2-2.466 2.467-4.566 4.233-6.3 5.3-1.733 1.067-3.7 1.6-5.9 1.6-1.866 0-3.333-.567-4.4-1.7-1.066-1.133-1.533-2.867-1.4-5.2.067-.6-.133-.9-.6-.9-.466-.067-.766.2-.9.8a5.49 5.49 0 0 0-.1 1.8c.067.533.167 1 .3 1.4a22.218 22.218 0 0 1-4.4 2.8c-1.533.667-3.233 1-5.1 1-2 0-3.767-.7-5.3-2.1-1.533-1.467-2.3-3.7-2.3-6.7 0-2.733.667-5.533 2-8.4 1.334-2.933 3.034-5.567 5.1-7.9 2.067-2.4 4.334-4.367 6.8-5.9 2.534-1.533 4.967-2.3 7.3-2.3 1.134 0 2.034.333 2.7 1 .734.667 1 1.7.8 3.1a6.758 6.758 0 0 1-1.8 3.8c-1 1.067-2.233 2.1-3.7 3.1-1.466 1-3.1 2.067-4.9 3.2a63.094 63.094 0 0 0-5.3 3.9c1.067-2.6 2.5-4.867 4.3-6.8 1.867-2 3.7-3.467 5.5-4.4.667-.333.867-.733.6-1.2-.266-.533-.666-.667-1.2-.4Z" fill="#fff"/><path d="M135.921 72.2c2.133 0 4.267-.4 6.4-1.2 2.2-.867 4.367-2.367 6.5-4.5.533-.533 1.2-.8 2-.8.8-.067 1.5.2 2.1.8.6.6.867 1.3.8 2.1 0 .8-.267 1.467-.8 2-2.6 2.6-5.367 4.5-8.3 5.7-2.933 1.133-5.833 1.7-8.7 1.7-3.6 0-6.367-.8-8.3-2.4-1.867-1.6-2.8-3.9-2.8-6.9 0-.867.033-1.6.1-2.2.133-.667.267-1.3.4-1.9.133-.667-.033-1.033-.5-1.1-.467-.133-.8.1-1 .7-.2.733-.367 1.6-.5 2.6-.067.933-.1 1.867-.1 2.8l-1 1c-.533.533-1.2.833-2 .9-.8 0-1.5-.3-2.1-.9-.6-.6-.867-1.3-.8-2.1 0-.8.267-1.467.8-2 1.2-1.2 2.467-2.533 3.8-4a277.1 277.1 0 0 0 4.2-4.5c1.467-1.6 2.9-3.133 4.3-4.6a71.474 71.474 0 0 1 4.2-3.9c1.8-1.533 3.667-2.8 5.6-3.8 2-1 3.933-1.5 5.8-1.5 1.933 0 3.367.533 4.3 1.6 1 1.067 1.4 2.633 1.2 4.7-.133 1.2-.433 2.3-.9 3.3-.4 1-1.067 2.067-2 3.2-.8.867-1.6 1.333-2.4 1.4-.8.067-1.5-.1-2.1-.5-.533-.467-.867-1.1-1-1.9-.067-.8.267-1.667 1-2.6.8-1 1.2-1.733 1.2-2.2.067-.533-.133-.8-.6-.8-1.467 0-3 .533-4.6 1.6-1.533 1.067-2.967 2.433-4.3 4.1a26.858 26.858 0 0 0-3.4 5.2c-.867 1.867-1.4 3.633-1.6 5.3-.133 1.6.167 2.933.9 4 .733 1.067 2.133 1.6 4.2 1.6Z" fill="#fff"/><path d="M148.785 66.5c1.867-1.867 3.9-4.167 6.1-6.9 2.2-2.8 4.467-5.8 6.8-9l-2.2 6.6c-.6 1.8-1.133 3.333-1.6 4.6-.4 1.2-.767 2.233-1.1 3.1a50.508 50.508 0 0 1-.8 2.4 33.253 33.253 0 0 1-1.5 1.6c-.467.533-1 1.1-1.6 1.7-.533.533-1.2.833-2 .9-.8 0-1.5-.3-2.1-.9-.6-.6-.867-1.3-.8-2.1 0-.8.267-1.467.8-2Zm34-40c.333-.533.3-.933-.1-1.2-.4-.333-.833-.167-1.3.5-2.667 4.067-4.9 8.233-6.7 12.5-1.8 4.2-3.4 8.333-4.8 12.4-.867 1-1.667 2.1-2.4 3.3-.733 1.133-1.3 2.067-1.7 2.8-.267.467-.2.833.2 1.1.4.2.767.067 1.1-.4a65.303 65.303 0 0 1 3-4.4c1.133-1.6 2.4-3.067 3.8-4.4 1.4-1.4 2.9-2.533 4.5-3.4s3.367-1.3 5.3-1.3c1.933 0 3.3.633 4.1 1.9.8 1.267 1.133 2.667 1 4.2-.133 2.267-.933 4.2-2.4 5.8a42.454 42.454 0 0 1-4.8 4.3 70.72 70.72 0 0 0-4.6 4c-1.4 1.267-2.1 2.733-2.1 4.4 0 1.067.3 1.833.9 2.3.667.467 1.4.7 2.2.7 1.2 0 2.4-.433 3.6-1.3 1.267-.867 2.733-2.133 4.4-3.8.533-.533 1.2-.8 2-.8.8-.067 1.5.2 2.1.8.6.6.867 1.3.8 2.1 0 .8-.267 1.467-.8 2-2.333 2.333-4.433 4.067-6.3 5.2-1.8 1.133-3.967 1.7-6.5 1.7-1.533 0-2.867-.233-4-.7-1.067-.467-1.933-1.067-2.6-1.8a8.502 8.502 0 0 1-1.5-2.6c-.267-1-.4-2.033-.4-3.1 0-2.2.567-4.2 1.7-6 1.2-1.867 2.533-3.467 4-4.8 1.533-1.4 3-2.567 4.4-3.5 1.4-.933 2.367-1.667 2.9-2.2.8-.8 1-1.4.6-1.8-.4-.467-1.067-.5-2-.1-1.133.467-2.567 1.533-4.3 3.2-1.667 1.6-3.367 3.533-5.1 5.8a91.03 91.03 0 0 0-5.1 7.2c-1.6 2.533-2.933 4.967-4 7.3-.4 1.333-1.1 2.2-2.1 2.6-1 .4-1.9.433-2.7.1-.933-.333-1.5-.9-1.7-1.7-.2-.867-.133-1.7.2-2.5 1.467-4 2.967-8.233 4.5-12.7a742.297 742.297 0 0 1 4.6-13.2c1.533-4.333 3.1-8.4 4.7-12.2 1.6-3.867 3.267-7.167 5-9.9 1.667-2.667 3.467-4.533 5.4-5.6 1.933-1.067 3.633-1.433 5.1-1.1 1.533.267 2.633 1.133 3.3 2.6.733 1.467.7 3.433-.1 5.9-.6 1.8-1.5 3.567-2.7 5.3a52.717 52.717 0 0 1-3.9 5.2c-1.467 1.733-3 3.5-4.6 5.3a172.506 172.506 0 0 0-4.5 5.3c.867-2.2 1.767-4.333 2.7-6.4 1-2.067 1.933-4.033 2.8-5.9.933-1.867 1.8-3.567 2.6-5.1a104.808 104.808 0 0 1 2.3-3.9Z" fill="#fff"/><path d="M190.092 70.6c-.533.533-1.2.833-2 .9-.8 0-1.5-.3-2.1-.9-.6-.6-.867-1.3-.8-2.1 0-.8.267-1.467.8-2a155.528 155.528 0 0 0 4.5-4.7c1.533-1.667 3-3.367 4.4-5.1a82.845 82.845 0 0 0 4-5.1c1.2-1.667 2.167-3.267 2.9-4.8.667-1.333 1.4-2.133 2.2-2.4.867-.333 1.667-.433 2.4-.3 1.333.267 2.167.967 2.5 2.1.4 1.133.333 2.2-.2 3.2-1.2 2.4-2.367 4.667-3.5 6.8l-2.9 5.8c-.867 1.733-1.567 3.267-2.1 4.6-.533 1.333-.767 2.433-.7 3.3 0 .933.4 1.4 1.2 1.4.667 0 1.367-.2 2.1-.6.8-.4 1.633-.967 2.5-1.7 0 2.267.333 4.167 1 5.7-2.467 1.867-4.8 2.8-7 2.8-1.6 0-3.1-.467-4.5-1.4-1.4-1-2.1-2.667-2.1-5 0-1.533.267-3.033.8-4.5a85.614 85.614 0 0 1 2-4.5c.267-.533.2-.9-.2-1.1-.4-.2-.767-.033-1.1.5-.467.8-.967 1.867-1.5 3.2-.533 1.333-1 2.9-1.4 4.7l-1.2 1.2Zm44.1-10.2c-.8 0-1.267-.367-1.4-1.1-.133-.8-.067-1.667.2-2.6.267-1 .667-1.967 1.2-2.9.6-1 1.2-1.7 1.8-2.1.467-.333.567-.7.3-1.1-.2-.4-.533-.467-1-.2-.933.533-1.767 1.433-2.5 2.7a11.622 11.622 0 0 0-1.5 3.8c-.2 1.267-.133 2.4.2 3.4s1.067 1.5 2.2 1.5h.8c.333 0 .667-.067 1-.2 1.067-.267 1.933-.133 2.6.4.733.467 1.167 1.067 1.3 1.8.2.733.1 1.5-.3 2.3-.4.733-1.133 1.233-2.2 1.5-3.267.8-5.8.767-7.6-.1-1.733-.867-2.933-2.167-3.6-3.9-.667-1.733-.833-3.7-.5-5.9a22.94 22.94 0 0 1 1.9-6.4c.933-2 2.133-3.667 3.6-5 1.467-1.4 3-2.1 4.6-2.1 1 0 1.867.333 2.6 1 .733.667 1.2 1.667 1.4 3 .267 1.267.167 2.867-.3 4.8-.4 1.933-1.267 4.2-2.6 6.8-.267.133-.6.267-1 .4s-.8.2-1.2.2Zm-20.3 17.1a9.13 9.13 0 0 1-2.7-.4c-.8-.267-1.533-.7-2.2-1.3-.667-.667-1.2-1.533-1.6-2.6-.4-1.133-.6-2.533-.6-4.2 0-2.467.4-5.1 1.2-7.9.867-2.867 1.933-5.5 3.2-7.9 1.333-2.4 2.733-4.4 4.2-6 1.467-1.6 2.867-2.4 4.2-2.4 1.2 0 2.033.367 2.5 1.1.467.667.7 1.4.7 2.2 0 1.267-.233 2.667-.7 4.2-.4 1.467-.967 3.033-1.7 4.7-.733 1.6-1.6 3.233-2.6 4.9-1 1.6-2.1 3.167-3.3 4.7.2-2.533.7-4.933 1.5-7.2.8-2.333 1.9-4.667 3.3-7 .333-.533.267-.9-.2-1.1-.4-.2-.767-.033-1.1.5-1.4 2.2-2.633 4.767-3.7 7.7-1 2.933-1.5 5.8-1.5 8.6 0 1.4.4 2.367 1.2 2.9.8.467 1.8.6 3 .4 1.267-.267 2.6-.867 4-1.8 1.467-1 2.833-2.3 4.1-3.9a8.018 8.018 0 0 0 2.1 2.4c.867.6 1.933 1.033 3.2 1.3-4.8 5.4-10.3 8.1-16.5 8.1Z" fill="#fff"/><path d="M259.51 49.5c-.933.533-1.933 1.233-3 2.1-1.067.8-2.133 1.8-3.2 3-1.067 1.2-2.067 2.6-3 4.2-.867 1.6-1.6 3.4-2.2 5.4l-.5 2c-.133.733-.2 1.467-.2 2.2.067.733.267 1.367.6 1.9.4.533 1.033.8 1.9.8 2.067 0 4.1-.867 6.1-2.6 2-1.8 3.833-3.9 5.5-6.3a66.417 66.417 0 0 0 4.6-7.3c1.4-2.467 2.533-4.4 3.4-5.8.733-1.2 1.533-1.933 2.4-2.2.867-.333 1.667-.4 2.4-.2 1.333.333 2.133 1.067 2.4 2.2.267 1.133.133 2.2-.4 3.2a127.9 127.9 0 0 1-3.7 6.4 5221.113 5221.113 0 0 1-3.1 5.1 96.748 96.748 0 0 0-2.2 3.9c-.533 1.067-.8 1.933-.8 2.6 0 .733.333 1.1 1 1.1.267 0 .533-.033.8-.1.267-.133.6-.367 1-.7.467-.333 1.033-.8 1.7-1.4.667-.6 1.533-1.433 2.6-2.5.533-.533 1.2-.8 2-.8.8-.067 1.5.2 2.1.8.6.6.867 1.3.8 2.1 0 .8-.267 1.467-.8 2-2.467 2.467-4.567 4.233-6.3 5.3-1.733 1.067-3.7 1.6-5.9 1.6-1.867 0-3.333-.567-4.4-1.7-1.067-1.133-1.533-2.867-1.4-5.2.067-.6-.133-.9-.6-.9-.467-.067-.767.2-.9.8-.133.6-.167 1.2-.1 1.8.067.533.167 1 .3 1.4a22.242 22.242 0 0 1-4.4 2.8c-1.533.667-3.233 1-5.1 1-2 0-3.767-.7-5.3-2.1-1.533-1.467-2.3-3.7-2.3-6.7 0-2.733.667-5.533 2-8.4 1.333-2.933 3.033-5.567 5.1-7.9 2.067-2.4 4.333-4.367 6.8-5.9 2.533-1.533 4.967-2.3 7.3-2.3 1.133 0 2.033.333 2.7 1 .667.667.933 1.7.8 3.1-.133 1.267-.833 2.633-2.1 4.1-1.2 1.467-2.633 2.9-4.3 4.3-1.667 1.4-3.4 2.7-5.2 3.9-1.733 1.2-3.233 2.133-4.5 2.8a26.052 26.052 0 0 1 2-3.8 30.928 30.928 0 0 1 2.5-3.6c.933-1.133 1.867-2.1 2.8-2.9 1-.867 1.967-1.533 2.9-2 .667-.333.867-.733.6-1.2-.267-.533-.667-.667-1.2-.4Zm.2 21.2c0 .133-.033.233-.1.3v-.1c.067-.067.1-.133.1-.2Zm-22.8-3.1c-1.133.267-2.033.167-2.7-.3-.667-.533-1.067-1.167-1.2-1.9-.2-.733-.1-1.467.3-2.2.4-.8 1.133-1.333 2.2-1.6.867-.2 1.9-.533 3.1-1a76.59 76.59 0 0 0 3.6-1.6c-1.267 2.6-2.033 5.133-2.3 7.6-.533.2-1 .4-1.4.6-.467.133-1 .267-1.6.4Z" fill="#fff"/><path d="M280.29 71.1c0-1.533.266-3.033.8-4.5a84.793 84.793 0 0 1 2-4.5c.266-.533.2-.9-.2-1.1-.4-.2-.767-.033-1.1.5-.467.8-.967 1.867-1.5 3.2-.534 1.333-1 2.9-1.4 4.7l-1.2 1.2c-.534.533-1.2.833-2 .9-.8 0-1.5-.3-2.1-.9-.6-.6-.867-1.3-.8-2.1 0-.8.266-1.467.8-2a158.043 158.043 0 0 0 4.5-4.7c1.533-1.667 3-3.367 4.4-5.1a83.233 83.233 0 0 0 4-5.1c1.2-1.667 2.166-3.267 2.9-4.8.666-1.333 1.4-2.133 2.2-2.4.866-.333 1.666-.433 2.4-.3 1.333.267 2.166.967 2.5 2.1.4 1.133.333 2.2-.2 3.2-1.2 2.4-2.367 4.667-3.5 6.8l-2.9 5.8c-.867 1.733-1.567 3.267-2.1 4.6-.534 1.333-.767 2.433-.7 3.3 0 .667.333 1.1 1 1.3.666.2 1.533.167 2.6-.1 1.066-.333 2.266-.933 3.6-1.8 1.4-.933 2.8-2.167 4.2-3.7a8.018 8.018 0 0 0 2.1 2.4c.866.6 1.933 1.033 3.2 1.3-2.4 2.667-5.034 4.7-7.9 6.1-2.867 1.4-5.867 2.1-9 2.1-1.6 0-3.1-.467-4.5-1.4-1.4-1-2.1-2.667-2.1-5Zm27.4-10.7c-.8 0-1.267-.367-1.4-1.1-.134-.8-.067-1.667.2-2.6.266-1 .666-1.967 1.2-2.9.6-1 1.2-1.7 1.8-2.1.466-.333.566-.7.3-1.1-.2-.4-.534-.467-1-.2-.934.533-1.767 1.433-2.5 2.7a11.578 11.578 0 0 0-1.5 3.8c-.2 1.267-.134 2.4.2 3.4.333 1 1.066 1.5 2.2 1.5h.8c.333 0 .666-.067 1-.2 1.066-.267 1.933-.133 2.6.4.733.467 1.166 1.067 1.3 1.8.2.733.1 1.5-.3 2.3-.4.733-1.134 1.233-2.2 1.5-3.267.8-5.8.767-7.6-.1-1.734-.867-2.934-2.167-3.6-3.9-.667-1.733-.834-3.7-.5-5.9.333-2.267.966-4.4 1.9-6.4.933-2 2.133-3.667 3.6-5 1.466-1.4 3-2.1 4.6-2.1 1 0 1.866.333 2.6 1 .733.667 1.2 1.667 1.4 3 .266 1.267.166 2.867-.3 4.8-.4 1.933-1.267 4.2-2.6 6.8-.267.133-.6.267-1 .4s-.8.2-1.2.2Z" fill="#fff"/><path d="M341.448 50.5c-.334 3.133-1.967 5.9-4.9 8.3-2.867 2.333-7.534 4.367-14 6.1.733-2.667 2.1-5.267 4.1-7.8 2.333-.8 4.233-1.633 5.7-2.5 1.533-.933 2.466-1.767 2.8-2.5.266-.533.233-.967-.1-1.3-.267-.333-.734-.433-1.4-.3-1.467.267-2.934 1-4.4 2.2-1.467 1.133-2.834 2.5-4.1 4.1-1.2 1.6-2.234 3.3-3.1 5.1-.8 1.8-1.267 3.467-1.4 5-.067 1.533.266 2.8 1 3.8.8 1 2.2 1.5 4.2 1.5 2.133 0 4.266-.4 6.4-1.2 2.2-.867 4.366-2.367 6.5-4.5.533-.533 1.2-.8 2-.8.8-.067 1.5.2 2.1.8.6.6.866 1.3.8 2.1 0 .8-.267 1.467-.8 2-2.6 2.6-5.367 4.5-8.3 5.7-2.934 1.133-5.834 1.7-8.7 1.7-3.6 0-6.367-.8-8.3-2.4-1.867-1.6-2.8-3.9-2.8-6.9 0-2.067.3-4.067.9-6a33.015 33.015 0 0 1 2.4-5.4c1-1.667 2.066-3.133 3.2-4.4 1.2-1.333 2.3-2.467 3.3-3.4 1.8-1.533 3.666-2.8 5.6-3.8 2-1 3.933-1.5 5.8-1.5 1.933 0 3.366.533 4.3 1.6 1 1.067 1.4 2.633 1.2 4.7Zm-31.1 17.1c-1.134.267-2.034.167-2.7-.3-.667-.533-1.067-1.167-1.2-1.9-.2-.733-.1-1.467.3-2.2.4-.8 1.133-1.333 2.2-1.6a58.783 58.783 0 0 0 2.6-.6c1-.267 2.166-.6 3.5-1-.934 2.533-1.5 4.833-1.7 6.9l-3 .7Z" fill="#fff"/></svg>