<svg xmlns="http://www.w3.org/2000/svg" xmlns:xlink="http://www.w3.org/1999/xlink" width="299.158" height="117.22" viewBox="0 0 299.158 117.22">
  <defs>
    <clipPath id="clip-path">
      <path id="Path_1" data-name="Path 1" d="M36.81-120.155a4.257,4.257,0,0,1-.156,3.433,3.914,3.914,0,0,1-2.081,1.821,3.517,3.517,0,0,1-2.705-.156,3.914,3.914,0,0,1-2.029-2.6,22.834,22.834,0,0,1-.78-12.225,23.542,23.542,0,0,1,5.046-10.3,25.516,25.516,0,0,1,9.52-6.919,28.779,28.779,0,0,1,12.849-2.185,61.089,61.089,0,0,1,6.4.728q3.069.52,5.983,1.248t5.566,1.4a41.924,41.924,0,0,0,5.15.988,42.228,42.228,0,0,0-4.37,5.93q-4.994-.832-9.988-2.185a36.253,36.253,0,0,0-9.468-1.353,25.46,25.46,0,0,0-9.1,1.561,18,18,0,0,0-6.815,4.422,14.692,14.692,0,0,0-3.642,7.023A18.41,18.41,0,0,0,36.81-120.155Zm60.657-25.595a11.9,11.9,0,0,0-6.659,1.977,22.46,22.46,0,0,0-5.566,5.358,49.7,49.7,0,0,0-4.786,7.907q-2.237,4.526-4.37,9.676t-4.318,10.612q-2.185,5.462-4.682,10.769-1.561-.832-3.225-1.561t-3.433-1.561q1.873-3.954,3.642-8.167t3.537-8.48q2.6-6.347,5.462-12.329a60.386,60.386,0,0,1,6.347-10.56,30.444,30.444,0,0,1,7.8-7.335,18.06,18.06,0,0,1,9.936-2.757,8.208,8.208,0,0,1,5.306,1.457,4.53,4.53,0,0,1,1.769,3.642,6.617,6.617,0,0,1-1.04,3.329,9.733,9.733,0,0,1-3.225,3.173,20.356,20.356,0,0,1-5.566,2.341,30.477,30.477,0,0,1-8.063.936,18.663,18.663,0,0,1,5.15-5.046,10.819,10.819,0,0,1,5.878-1.821q1.04,0,.988-.78A.769.769,0,0,0,97.467-145.749ZM55.954-93.624q3.746,1.457,6.867,2.809A59.219,59.219,0,0,1,57.2-82.8,42.558,42.558,0,0,1,50.335-76.2a32.466,32.466,0,0,1-8.063,4.526,25.664,25.664,0,0,1-9.312,1.665,24.914,24.914,0,0,1-8.584-1.353A17.81,17.81,0,0,1,18.238-75,14.545,14.545,0,0,1,14.6-80.306a16.788,16.788,0,0,1-1.2-6.243,18.472,18.472,0,0,1,1.561-7.439,19.786,19.786,0,0,1,4.474-6.4,21.623,21.623,0,0,1,7.075-4.474,25.027,25.027,0,0,1,9.364-1.665,50.566,50.566,0,0,1,9.832.936,63.132,63.132,0,0,1,8.844,2.393q4.11,1.457,7.7,3.121l6.5,3.017a3.741,3.741,0,0,1,2.081,2.185,3.422,3.422,0,0,1-.1,2.5,3.211,3.211,0,0,1-1.769,1.665,3.436,3.436,0,0,1-2.913-.312q-2.809-1.353-6.347-2.861t-7.491-2.757a69.389,69.389,0,0,0-8.115-2.029,45.074,45.074,0,0,0-8.323-.78,18.3,18.3,0,0,0-6.295,1.04,15.9,15.9,0,0,0-4.89,2.757,11.81,11.81,0,0,0-3.121,4.058,11.548,11.548,0,0,0-1.092,4.942A9.29,9.29,0,0,0,23.6-79.682q3.225,3.017,9.676,3.017a17.058,17.058,0,0,0,6.659-1.353,25.515,25.515,0,0,0,6.087-3.642,34.42,34.42,0,0,0,5.358-5.41A61.544,61.544,0,0,0,55.954-93.624Zm31.421-11.445a7.134,7.134,0,0,1-.1,1.353,9.963,9.963,0,0,1-2.861-.884,2.232,2.232,0,0,1-.988-.988.747.747,0,0,0-1.092-.52.784.784,0,0,0-.468,1.144,4.031,4.031,0,0,0,2.965,2.341q2.237.572,4.734,1.2a16.943,16.943,0,0,1,4.526,1.821,5.239,5.239,0,0,1,2.341,4.318,7.643,7.643,0,0,1-1.092,5.1,21.951,21.951,0,0,1-3.173,3.9q-1.769,1.717-3.329,3.173A4.1,4.1,0,0,0,87.271-80.2q0,.832.312,1.04a2.218,2.218,0,0,0,1.144.208,5,5,0,0,0,2.549-1.457q1.717-1.457,3.8-3.537a3.011,3.011,0,0,1,2.081-.884,2.817,2.817,0,0,1,2.185.884,2.817,2.817,0,0,1,.884,2.185,3.011,3.011,0,0,1-.884,2.081,40.458,40.458,0,0,1-6.4,5.41A10.534,10.534,0,0,1,87.167-72.5a8.117,8.117,0,0,1-5.15-1.665q-2.133-1.665-2.133-5.41a8.812,8.812,0,0,1,1.613-5.2,29.021,29.021,0,0,1,3.485-4.11q1.873-1.821,3.381-3.225t1.2-2.653a1.812,1.812,0,0,0-1.249-.988q-1.04-.364-2.5-.728t-3.173-.936a11.9,11.9,0,0,1-3.173-1.613,8.589,8.589,0,0,1-2.393-2.6,7.809,7.809,0,0,1-.936-4.058,5.229,5.229,0,0,1,1.717-4.058,5.521,5.521,0,0,1,3.8-1.561Q87.375-111.311,87.375-105.068ZM66.046-91.022a3.555,3.555,0,0,1-2.029-2.133,3.473,3.473,0,0,1,.156-2.445,3.211,3.211,0,0,1,1.769-1.665,3.384,3.384,0,0,1,2.809.208,10.272,10.272,0,0,0,2.081.728,10.685,10.685,0,0,0,2.6.312,7.7,7.7,0,0,0,2.549-.416,4.2,4.2,0,0,0,2.029-1.561,11.43,11.43,0,0,0,3.173,1.769q1.717.624,3.381,1.144a13.1,13.1,0,0,1-4.318,3.8,15.151,15.151,0,0,1-4.994,1.665,15.715,15.715,0,0,1-4.942-.052A15.392,15.392,0,0,1,66.046-91.022ZM99.34-79.682a3.011,3.011,0,0,1-2.081.884,2.817,2.817,0,0,1-2.185-.884,2.817,2.817,0,0,1-.884-2.185,3.011,3.011,0,0,1,.884-2.081q2.081-2.081,3.8-3.59t3.9-3.277A23.632,23.632,0,0,0,101-86.08a18.407,18.407,0,0,0-.52,5.254Zm21.641-21.953A26.5,26.5,0,0,0,117.86-99.5a25.539,25.539,0,0,0-3.329,3.173,24.985,24.985,0,0,0-3.069,4.37,27.608,27.608,0,0,0-2.341,5.618q-.208.832-.468,2.029a9.052,9.052,0,0,0-.208,2.341,3.712,3.712,0,0,0,.624,1.977,2.167,2.167,0,0,0,1.925.832,9.59,9.59,0,0,0,6.347-2.757,37.676,37.676,0,0,0,5.774-6.5,81.361,81.361,0,0,0,4.786-7.6q2.133-3.85,3.485-6.035a5.1,5.1,0,0,1,2.5-2.341,4.172,4.172,0,0,1,2.5-.156,3.053,3.053,0,0,1,2.5,2.289,4.609,4.609,0,0,1-.416,3.329q-1.977,3.642-3.8,6.607t-3.225,5.306q-1.4,2.341-2.289,4.058a6.515,6.515,0,0,0-.884,2.757q0,1.144,1.04,1.144a2.356,2.356,0,0,0,.832-.156,4.678,4.678,0,0,0,1.092-.676q.676-.52,1.717-1.457t2.705-2.6a3.011,3.011,0,0,1,2.081-.884,2.817,2.817,0,0,1,2.185.884,2.817,2.817,0,0,1,.884,2.185,3.011,3.011,0,0,1-.884,2.081,38.652,38.652,0,0,1-6.555,5.514,11.474,11.474,0,0,1-6.139,1.665,5.983,5.983,0,0,1-4.578-1.769q-1.665-1.769-1.457-5.41.1-.936-.624-.988t-.936.884a5.425,5.425,0,0,0-.1,1.821,7.653,7.653,0,0,0,.312,1.509,21.389,21.389,0,0,1-4.578,2.861,12.628,12.628,0,0,1-5.306,1.092,7.837,7.837,0,0,1-5.514-2.237q-2.393-2.237-2.393-6.919a20.981,20.981,0,0,1,2.081-8.792,34.046,34.046,0,0,1,5.306-8.219,30.923,30.923,0,0,1,7.127-6.087,14.442,14.442,0,0,1,7.543-2.393,3.977,3.977,0,0,1,2.861,1.04,3.532,3.532,0,0,1,.78,3.225,7.031,7.031,0,0,1-1.873,3.954,23.049,23.049,0,0,1-3.85,3.225q-2.289,1.561-5.046,3.329a60.887,60.887,0,0,0-5.566,4.058,23.333,23.333,0,0,1,4.526-7.127,21.476,21.476,0,0,1,5.67-4.526q1.04-.52.624-1.3A.826.826,0,0,0,120.981-101.635Zm33.19,23.618a18.591,18.591,0,0,0,6.711-1.3,19.68,19.68,0,0,0,6.711-4.63,3.011,3.011,0,0,1,2.081-.884,2.817,2.817,0,0,1,2.185.884,2.817,2.817,0,0,1,.884,2.185,3.011,3.011,0,0,1-.884,2.081,25.7,25.7,0,0,1-8.636,5.878,24.363,24.363,0,0,1-9.052,1.821q-5.618,0-8.584-2.5a8.86,8.86,0,0,1-2.965-7.179A15.23,15.23,0,0,1,142.778-84q.156-.988.364-1.925.208-1.04-.52-1.2t-1.04.78a16.684,16.684,0,0,0-.468,2.653,28.815,28.815,0,0,0-.156,2.965l-1.04,1.04a3.011,3.011,0,0,1-2.081.884,2.817,2.817,0,0,1-2.185-.884,2.817,2.817,0,0,1-.884-2.185,3.011,3.011,0,0,1,.884-2.081q1.873-1.873,4.006-4.162t4.37-4.734q2.237-2.445,4.474-4.734t4.318-4.058a30.119,30.119,0,0,1,5.878-3.954,13.155,13.155,0,0,1,5.983-1.561,5.8,5.8,0,0,1,4.526,1.665,6.128,6.128,0,0,1,1.2,4.89,11.888,11.888,0,0,1-.884,3.433,14.335,14.335,0,0,1-2.133,3.329,3.967,3.967,0,0,1-2.5,1.457,2.978,2.978,0,0,1-2.133-.572,2.733,2.733,0,0,1-1.04-1.925,3.708,3.708,0,0,1,.988-2.705,5.17,5.17,0,0,0,1.3-2.341q.052-.78-.676-.78a8.442,8.442,0,0,0-4.734,1.665,21.45,21.45,0,0,0-4.526,4.214,27.5,27.5,0,0,0-3.485,5.462,16.559,16.559,0,0,0-1.665,5.462,6.125,6.125,0,0,0,.884,4.214Q150.945-78.017,154.171-78.017Zm13.422-5.93a86.028,86.028,0,0,0,6.347-7.231q3.433-4.318,7.075-9.312l-2.289,6.867q-.936,2.809-1.613,4.734t-1.144,3.277q-.468,1.353-.884,2.5-.728.832-1.509,1.665t-1.717,1.769a3.011,3.011,0,0,1-2.081.884,2.817,2.817,0,0,1-2.185-.884,2.817,2.817,0,0,1-.884-2.185A3.011,3.011,0,0,1,167.592-83.948Zm35.375-41.617q.52-.832-.1-1.3t-1.353.572a82.465,82.465,0,0,0-6.971,12.953q-2.809,6.607-4.994,12.953a27.482,27.482,0,0,0-2.5,3.381q-1.144,1.821-1.769,2.965-.416.728.208,1.092t1.144-.364q1.353-2.185,3.121-4.63a35.314,35.314,0,0,1,3.954-4.578A21.065,21.065,0,0,1,198.389-106a11.389,11.389,0,0,1,5.514-1.353,4.648,4.648,0,0,1,4.266,1.977,6.855,6.855,0,0,1,1.04,4.37,9.266,9.266,0,0,1-2.5,5.982,43.706,43.706,0,0,1-4.942,4.526q-2.653,2.081-4.838,4.11a6.171,6.171,0,0,0-2.185,4.63,2.775,2.775,0,0,0,.988,2.393,3.676,3.676,0,0,0,2.237.728,6.6,6.6,0,0,0,3.8-1.353,36.074,36.074,0,0,0,4.526-3.954,3.011,3.011,0,0,1,2.081-.884,2.817,2.817,0,0,1,2.185.884,2.817,2.817,0,0,1,.884,2.185,3.011,3.011,0,0,1-.884,2.081,37.73,37.73,0,0,1-6.5,5.41,12.7,12.7,0,0,1-6.815,1.769,10.491,10.491,0,0,1-4.11-.728,7.416,7.416,0,0,1-2.757-1.925,7.441,7.441,0,0,1-1.509-2.705,10.643,10.643,0,0,1-.468-3.173,11.49,11.49,0,0,1,1.821-6.295,24.5,24.5,0,0,1,4.162-4.994,38.508,38.508,0,0,1,4.526-3.589,21.619,21.619,0,0,0,3.017-2.289q1.249-1.249.624-1.925t-2.081-.052a15.872,15.872,0,0,0-4.422,3.277,55.835,55.835,0,0,0-5.358,6.035q-2.705,3.485-5.254,7.491a63.611,63.611,0,0,0-4.214,7.647,3.864,3.864,0,0,1-2.185,2.705,3.619,3.619,0,0,1-2.809.1,2.527,2.527,0,0,1-1.769-1.821,4.026,4.026,0,0,1,.208-2.549q2.289-6.243,4.682-13.266t4.786-13.734q2.393-6.711,4.89-12.693a68.465,68.465,0,0,1,5.2-10.248,16.232,16.232,0,0,1,5.618-5.826,7.957,7.957,0,0,1,5.358-1.2,4.678,4.678,0,0,1,3.433,2.757q1.092,2.289-.156,6.139a22.783,22.783,0,0,1-2.757,5.514,61.924,61.924,0,0,1-4.11,5.41q-2.289,2.705-4.734,5.462t-4.734,5.566q1.353-3.433,2.861-6.659t2.913-6.139q1.4-2.913,2.705-5.306T202.967-125.565ZM214.2-82.283a38.789,38.789,0,0,1,.936-9.676,90.382,90.382,0,0,1,3.173-11.341A121.044,121.044,0,0,1,223-114.8a84.59,84.59,0,0,1,5.514-10.092,40.238,40.238,0,0,1,5.67-7.127q2.809-2.705,5.1-2.705a3.734,3.734,0,0,1,3.381,1.509,7.39,7.39,0,0,1,.78,4.526,21.181,21.181,0,0,1-2.029,7.231,106.364,106.364,0,0,1-4.786,9.52q-2.861,5.1-6.4,10.4t-6.971,9.884a97.629,97.629,0,0,1,6.607-17.635q4.11-8.376,9-16.283.52-.832-.1-1.3t-1.353.572q-2.185,3.225-5.1,8.427a118.739,118.739,0,0,0-5.462,11.133,114.83,114.83,0,0,0-4.37,11.913,37.134,37.134,0,0,0-1.821,10.664q0,3.329.936,4.162a3.059,3.059,0,0,0,2.081.832q2.6,0,7.387-4.786a3.011,3.011,0,0,1,2.081-.884,2.817,2.817,0,0,1,2.185.884,2.817,2.817,0,0,1,.884,2.185,3.011,3.011,0,0,1-.884,2.081,39.976,39.976,0,0,1-4.162,3.694,22.983,22.983,0,0,1-3.433,2.185,11.8,11.8,0,0,1-2.809,1.04,10.9,10.9,0,0,1-2.185.26,7.615,7.615,0,0,1-6.191-2.549A11.822,11.822,0,0,1,214.2-82.283Zm-3.641,2.6a3.011,3.011,0,0,1-2.081.884,2.817,2.817,0,0,1-2.185-.884,2.817,2.817,0,0,1-.884-2.185,3.011,3.011,0,0,1,.884-2.081q1.353-1.353,3.381-3.642t4.11-4.994q-.624,2.913-.988,5.618a24,24,0,0,0-.156,5.2Zm36.207-24.762a4.738,4.738,0,0,1,2.341-2.549,4.681,4.681,0,0,1,2.445-.26,2.909,2.909,0,0,1,2.5,2.393,7.97,7.97,0,0,1-.832,4.786q-1.457,3.225-2.653,6.243t-2.029,5.67q-.832,2.653-1.3,4.682a15.314,15.314,0,0,0-.468,3.277q0,1.249,1.04,1.249a4.587,4.587,0,0,0,2.549-1.4q1.613-1.4,3.8-3.589a3.011,3.011,0,0,1,2.081-.884,2.817,2.817,0,0,1,2.185.884,2.817,2.817,0,0,1,.884,2.185,3.011,3.011,0,0,1-.884,2.081,40.458,40.458,0,0,1-6.4,5.41,10.534,10.534,0,0,1-5.774,1.769,6.439,6.439,0,0,1-4.838-1.873q-1.821-1.873-1.821-5.826a12.452,12.452,0,0,1,.676-4.058q.676-1.977,1.509-4.058.312-.832-.364-1.144t-1.2.624a32.934,32.934,0,0,0-1.977,5.93,7.607,7.607,0,0,1-1.144,1.4q-.936.988-1.769,1.821a3.011,3.011,0,0,1-2.081.884,2.817,2.817,0,0,1-2.185-.884,2.817,2.817,0,0,1-.884-2.185,3.011,3.011,0,0,1,.884-2.081q2.289-2.289,4.578-4.89t4.422-5.306q2.133-2.705,3.85-5.306A42.129,42.129,0,0,0,246.769-104.444Zm2.705-10.3a4.752,4.752,0,0,1,1.561-3.017,4.726,4.726,0,0,1,3.329-1.249,4.285,4.285,0,0,1,3.069,1.249,3.426,3.426,0,0,1,1.092,3.017,4.752,4.752,0,0,1-1.561,3.017,4.592,4.592,0,0,1-3.225,1.249,4.411,4.411,0,0,1-3.173-1.249A3.426,3.426,0,0,1,249.474-114.744Zm4.682,30.8q1.144-1.144,2.5-2.653t2.653-3.121l2.6-3.225q1.3-1.613,2.341-3.069A16.735,16.735,0,0,0,265.6-93a15.717,15.717,0,0,1,1.353,3.121q-1.977,2.705-4.318,5.514t-4.214,4.682a3.011,3.011,0,0,1-2.081.884,2.817,2.817,0,0,1-2.185-.884,2.817,2.817,0,0,1-.884-2.185A3.011,3.011,0,0,1,254.156-83.948Zm23.93-21.017a9.806,9.806,0,0,1-.936,3.9,24,24,0,0,1-2.6,4.422,15.98,15.98,0,0,1-1.977-5.15,5.317,5.317,0,0,1,.312-3.277q.52-.832-.156-1.2a.851.851,0,0,0-1.2.364,6.044,6.044,0,0,0-.468,4.734,21.161,21.161,0,0,0,2.445,5.982,28.547,28.547,0,0,1,2.393,5.358,14.565,14.565,0,0,1,.728,6.191,5.535,5.535,0,0,1-1.717,1.457,22.77,22.77,0,0,1-2.029,1.04.741.741,0,0,0-.468,1.04q.26.728,1.092.416a10.63,10.63,0,0,0,3.017-1.613,28.5,28.5,0,0,0,3.017-2.653,3.011,3.011,0,0,1,2.081-.884,2.817,2.817,0,0,1,2.185.884,2.817,2.817,0,0,1,.884,2.185,3.011,3.011,0,0,1-.884,2.081,29.053,29.053,0,0,1-8.011,5.826,21.556,21.556,0,0,1-9.364,1.977,5.9,5.9,0,0,1-3.9-1.04,3.416,3.416,0,0,1-1.2-2.705,3.6,3.6,0,0,1,1.613-3.173,4.866,4.866,0,0,1,3.381-.884,6.429,6.429,0,0,0,1.4.052,1.757,1.757,0,0,0,1.144-.52,3.562,3.562,0,0,0,.78-1.457,9.553,9.553,0,0,0,.312-2.757,12.219,12.219,0,0,0-.884-4.526q-.884-2.237-1.977-4.578T265.133-98.2a14,14,0,0,1-.884-4.89,10.814,10.814,0,0,1,.468-3.121,8.344,8.344,0,0,1,1.457-2.809,7.737,7.737,0,0,1,2.445-2.029,7.4,7.4,0,0,1,3.537-.78Q278.086-111.831,278.086-104.964ZM309.2-100.7a31.2,31.2,0,0,1-4.734.26q-2.341-.052-4.682-.208t-4.734-.26a26.174,26.174,0,0,0-4.682.208,3.852,3.852,0,0,1-2.549-.468,3.09,3.09,0,0,1-1.4-2.549,2.885,2.885,0,0,1,.884-2.705,4.828,4.828,0,0,1,2.445-1.145,26.176,26.176,0,0,1,4.682-.208q2.393.1,4.734.26t4.682.208a31.2,31.2,0,0,0,4.734-.26,3.852,3.852,0,0,1,2.549.468,3.09,3.09,0,0,1,1.4,2.549,2.885,2.885,0,0,1-.884,2.705A4.829,4.829,0,0,1,309.2-100.7Zm2.6-22.161a14.639,14.639,0,0,1-1.352,6.5,76.664,76.664,0,0,1-3.538,7.439,51.624,51.624,0,0,1-5.2-.052q-2.5-.156-4.266-.26l6.659-14.046a4.333,4.333,0,0,1,2.289-2.549,4.908,4.908,0,0,1,2.5-.26,3.012,3.012,0,0,1,2.133,1.144A4.132,4.132,0,0,1,311.8-122.86ZM279.543-83.948q3.329-3.433,6.711-7.439a83.668,83.668,0,0,0,5.982-7.959,21.886,21.886,0,0,1,4.266,0q2.289.208,4.37.312a59.91,59.91,0,0,0-3.954,9.26,25.866,25.866,0,0,0-1.249,6.139,5.424,5.424,0,0,0,.676,3.433,2.332,2.332,0,0,0,1.925,1.04q2.6,0,7.387-4.786a3.011,3.011,0,0,1,2.081-.884,2.817,2.817,0,0,1,2.185.884,2.817,2.817,0,0,1,.884,2.185,3.011,3.011,0,0,1-.884,2.081,49.189,49.189,0,0,1-4.058,3.694,22.11,22.11,0,0,1-3.225,2.185,10.084,10.084,0,0,1-2.757,1.04,12.978,12.978,0,0,1-2.549.26,8.329,8.329,0,0,1-5.15-1.457,8.4,8.4,0,0,1-2.809-3.746,13.892,13.892,0,0,1-.884-5.046,22.88,22.88,0,0,1,.624-5.358q.208-.936-.416-1.144t-1.04.728a12.149,12.149,0,0,0-.728,5.618q-.728.832-1.509,1.613l-1.613,1.613a3.011,3.011,0,0,1-2.081.884,2.817,2.817,0,0,1-2.185-.884,2.817,2.817,0,0,1-.884-2.185A3.011,3.011,0,0,1,279.543-83.948Z" transform="translate(-3.428 270.201)" fill="#fff"/>
    </clipPath>
    <linearGradient id="linear-gradient" x1="-0.014" y1="0.029" x2="1.041" y2="0.995" gradientUnits="objectBoundingBox">
      <stop offset="0.2" stop-color="#00aeef"/>
      <stop offset="0.512" stop-color="#bd93f9"/>
      <stop offset="0.9" stop-color="#ff79c6"/>
    </linearGradient>
  </defs>
  <g id="Logo_Stack" data-name="Logo Stack" transform="translate(0 0)">
    <path id="Path_11" data-name="Path 11" d="M-22.91-4.524a3.91,3.91,0,0,0,.725,2.538A2.778,2.778,0,0,0-20.257-.972a5.738,5.738,0,0,0,2.726-.479,12.472,12.472,0,0,0,3.118-1.885q-.029.261-.043.508t-.014.478q0,.319.029.623a5.3,5.3,0,0,0,.116.682A12.551,12.551,0,0,1-18.139.768,6.775,6.775,0,0,1-21.547.9,4.164,4.164,0,0,1-23.983-.768a6.043,6.043,0,0,1-.928-3.582,13.068,13.068,0,0,1,.7-4.089,20.6,20.6,0,0,1,1.9-4.132,25.778,25.778,0,0,1,2.77-3.8,23.418,23.418,0,0,1,3.32-3.132,16.808,16.808,0,0,1,3.567-2.131,8.735,8.735,0,0,1,3.465-.783,3.841,3.841,0,0,1,2.958.986,3.405,3.405,0,0,1,.9,2.378,6.668,6.668,0,0,1-.7,2.842,7.311,7.311,0,0,1-1.943,2.523,1.153,1.153,0,0,1-.841.3.953.953,0,0,1-.638-.3.914.914,0,0,1-.217-.667,1.112,1.112,0,0,1,.449-.783,9.789,9.789,0,0,0,.754-.783,5.854,5.854,0,0,0,.652-.913,5.637,5.637,0,0,0,.45-.986,2.919,2.919,0,0,0,.174-.943,1.607,1.607,0,0,0-.493-1.2A2.43,2.43,0,0,0-9.4-20.445a6.785,6.785,0,0,0-2.74.667,14.953,14.953,0,0,0-2.987,1.813,22.022,22.022,0,0,0-2.9,2.7,22.405,22.405,0,0,0-2.494,3.32,18.415,18.415,0,0,0-1.74,3.668A11.508,11.508,0,0,0-22.91-4.524Zm8.9,2.175a8.819,8.819,0,0,1,.29-2.161A15.279,15.279,0,0,1-12.934-6.8,16.517,16.517,0,0,1-11.8-8.976,14.845,14.845,0,0,1-10.483-10.8a7.77,7.77,0,0,1,1.348-1.276,2.152,2.152,0,0,1,1.218-.479q1.044,0,1.044,1.3a4.833,4.833,0,0,1-.449,1.885A15.783,15.783,0,0,1-8.454-7.236a22.431,22.431,0,0,1-1.493,2.1q-.812,1.015-1.508,1.769a7.087,7.087,0,0,1,.464-1.754,17.033,17.033,0,0,1,.884-1.914A14.053,14.053,0,0,1-9-8.773a10.034,10.034,0,0,1,1.116-1.29q.232-.2.087-.377t-.377,0A8.687,8.687,0,0,0-9.469-8.99,16.057,16.057,0,0,0-10.73-6.96a13.984,13.984,0,0,0-.957,2.291,7.405,7.405,0,0,0-.377,2.233q0,.957.435,1.189a1.288,1.288,0,0,0,1.058.015,4.974,4.974,0,0,0,1.32-.74A11.615,11.615,0,0,0-8-3.045a.839.839,0,0,1,.58-.247.785.785,0,0,1,.609.247.785.785,0,0,1,.247.609.839.839,0,0,1-.247.58A9.414,9.414,0,0,1-9.309-.015a5.191,5.191,0,0,1-2.32.609,2.266,2.266,0,0,1-1.711-.74A3.163,3.163,0,0,1-14.007-2.349Zm6-.7q.319-.319.7-.74t.74-.87l.725-.9q.362-.45.653-.856a4.666,4.666,0,0,0,.377.841,4.381,4.381,0,0,1,.377.87q-.551.754-1.2,1.537t-1.174,1.3a.839.839,0,0,1-.58.247A.785.785,0,0,1-8-1.856a.785.785,0,0,1-.247-.609A.839.839,0,0,1-8-3.045ZM-1.334-8.9a2.733,2.733,0,0,1-.261,1.088A6.689,6.689,0,0,1-2.32-6.583a4.455,4.455,0,0,1-.551-1.435,1.482,1.482,0,0,1,.087-.914q.145-.232-.044-.333a.237.237,0,0,0-.333.1,1.685,1.685,0,0,0-.131,1.32A5.9,5.9,0,0,0-2.61-6.177a7.958,7.958,0,0,1,.667,1.493,4.06,4.06,0,0,1,.2,1.726,1.543,1.543,0,0,1-.478.406,6.346,6.346,0,0,1-.565.29.207.207,0,0,0-.131.29q.073.2.3.116a2.963,2.963,0,0,0,.841-.449,7.944,7.944,0,0,0,.841-.739.839.839,0,0,1,.58-.247.785.785,0,0,1,.609.247.785.785,0,0,1,.247.609.839.839,0,0,1-.247.58A8.1,8.1,0,0,1-1.972-.232a6.008,6.008,0,0,1-2.61.551A1.645,1.645,0,0,1-5.669.029.952.952,0,0,1-6-.725a1,1,0,0,1,.45-.885,1.356,1.356,0,0,1,.942-.247,1.792,1.792,0,0,0,.392.015A.49.49,0,0,0-3.9-1.986a.993.993,0,0,0,.218-.406A2.663,2.663,0,0,0-3.6-3.161a3.406,3.406,0,0,0-.247-1.262q-.247-.623-.551-1.276t-.551-1.319a3.9,3.9,0,0,1-.246-1.363,3.014,3.014,0,0,1,.13-.87,2.326,2.326,0,0,1,.406-.783,2.157,2.157,0,0,1,.681-.566,2.064,2.064,0,0,1,.986-.217Q-1.334-10.817-1.334-8.9Zm.406,5.858q.319-.319.7-.74t.74-.87l.725-.9Q1.6-6,1.885-6.409a4.666,4.666,0,0,0,.377.841,4.381,4.381,0,0,1,.377.87q-.551.754-1.2,1.537T.261-1.856a.839.839,0,0,1-.58.247.785.785,0,0,1-.609-.247.785.785,0,0,1-.247-.609A.839.839,0,0,1-.928-3.045ZM5.742-8.9a2.733,2.733,0,0,1-.261,1.088,6.689,6.689,0,0,1-.725,1.232,4.455,4.455,0,0,1-.551-1.435,1.482,1.482,0,0,1,.087-.914q.145-.232-.044-.333a.237.237,0,0,0-.333.1,1.685,1.685,0,0,0-.131,1.32,5.9,5.9,0,0,0,.682,1.668,7.958,7.958,0,0,1,.667,1.493,4.06,4.06,0,0,1,.2,1.726,1.543,1.543,0,0,1-.478.406,6.346,6.346,0,0,1-.565.29.207.207,0,0,0-.131.29q.073.2.3.116a2.963,2.963,0,0,0,.841-.449,7.944,7.944,0,0,0,.841-.739.839.839,0,0,1,.58-.247.785.785,0,0,1,.609.247.785.785,0,0,1,.247.609.839.839,0,0,1-.247.58A8.1,8.1,0,0,1,5.1-.232a6.008,6.008,0,0,1-2.61.551A1.645,1.645,0,0,1,1.407.029a.952.952,0,0,1-.334-.754,1,1,0,0,1,.45-.885,1.356,1.356,0,0,1,.942-.247,1.792,1.792,0,0,0,.392.015.49.49,0,0,0,.319-.145.993.993,0,0,0,.218-.406,2.663,2.663,0,0,0,.087-.768,3.406,3.406,0,0,0-.247-1.262Q2.987-5.046,2.683-5.7T2.132-7.018a3.9,3.9,0,0,1-.246-1.363,3.014,3.014,0,0,1,.13-.87,2.326,2.326,0,0,1,.406-.783A2.157,2.157,0,0,1,3.1-10.6a2.064,2.064,0,0,1,.986-.217Q5.742-10.817,5.742-8.9Zm4.785.145a1.32,1.32,0,0,1,.653-.711,1.3,1.3,0,0,1,.681-.073.811.811,0,0,1,.7.667,2.221,2.221,0,0,1-.232,1.334q-.406.9-.74,1.74T11.02-4.22q-.232.74-.362,1.305A4.269,4.269,0,0,0,10.527-2q0,.348.29.348a1.278,1.278,0,0,0,.71-.392q.45-.391,1.059-1a.839.839,0,0,1,.58-.247.785.785,0,0,1,.609.247.785.785,0,0,1,.246.609.839.839,0,0,1-.246.58A11.277,11.277,0,0,1,11.992-.348a2.936,2.936,0,0,1-1.61.493A1.8,1.8,0,0,1,9.034-.377,2.255,2.255,0,0,1,8.526-2a3.471,3.471,0,0,1,.188-1.131q.188-.551.42-1.131.087-.232-.1-.319T8.7-4.408a9.18,9.18,0,0,0-.551,1.653,2.12,2.12,0,0,1-.319.391q-.261.276-.493.508a.839.839,0,0,1-.58.247.785.785,0,0,1-.609-.247A.785.785,0,0,1,5.9-2.465a.839.839,0,0,1,.247-.58q.638-.638,1.276-1.363T8.657-5.887q.594-.754,1.073-1.479A11.74,11.74,0,0,0,10.527-8.758Zm.754-2.871a1.325,1.325,0,0,1,.435-.841,1.317,1.317,0,0,1,.928-.348,1.194,1.194,0,0,1,.856.348.955.955,0,0,1,.3.841,1.325,1.325,0,0,1-.435.841,1.28,1.28,0,0,1-.9.348,1.229,1.229,0,0,1-.885-.348A.955.955,0,0,1,11.281-11.629Zm1.305,8.584q.319-.319.7-.74t.74-.87l.725-.9q.363-.45.653-.856a4.666,4.666,0,0,0,.377.841,4.381,4.381,0,0,1,.377.87q-.551.754-1.2,1.537t-1.175,1.3a.839.839,0,0,1-.58.247.785.785,0,0,1-.609-.247.785.785,0,0,1-.247-.609A.839.839,0,0,1,12.586-3.045ZM19.256-8.9A2.733,2.733,0,0,1,19-7.815a6.689,6.689,0,0,1-.725,1.232,4.455,4.455,0,0,1-.551-1.435,1.482,1.482,0,0,1,.087-.914q.145-.232-.043-.333a.237.237,0,0,0-.333.1,1.685,1.685,0,0,0-.131,1.32,5.9,5.9,0,0,0,.681,1.668,7.958,7.958,0,0,1,.667,1.493,4.06,4.06,0,0,1,.2,1.726,1.543,1.543,0,0,1-.479.406,6.345,6.345,0,0,1-.566.29.207.207,0,0,0-.13.29q.073.2.3.116a2.963,2.963,0,0,0,.841-.449,7.944,7.944,0,0,0,.841-.739.839.839,0,0,1,.58-.247.785.785,0,0,1,.609.247.785.785,0,0,1,.246.609.839.839,0,0,1-.246.58A8.1,8.1,0,0,1,18.618-.232a6.008,6.008,0,0,1-2.61.551,1.645,1.645,0,0,1-1.087-.29.952.952,0,0,1-.334-.754,1,1,0,0,1,.45-.885,1.356,1.356,0,0,1,.942-.247,1.792,1.792,0,0,0,.392.015.49.49,0,0,0,.319-.145.993.993,0,0,0,.218-.406,2.663,2.663,0,0,0,.087-.768,3.406,3.406,0,0,0-.246-1.262Q16.5-5.046,16.2-5.7t-.551-1.319A3.9,3.9,0,0,1,15.4-8.381a3.014,3.014,0,0,1,.13-.87,2.326,2.326,0,0,1,.406-.783,2.157,2.157,0,0,1,.681-.566,2.064,2.064,0,0,1,.986-.217Q19.256-10.817,19.256-8.9Zm8.671,1.189a8.7,8.7,0,0,1-1.32.073q-.652-.015-1.3-.058t-1.319-.073a7.3,7.3,0,0,0-1.305.058,1.074,1.074,0,0,1-.711-.13.861.861,0,0,1-.392-.71.8.8,0,0,1,.247-.754,1.346,1.346,0,0,1,.682-.319,7.3,7.3,0,0,1,1.305-.058q.667.029,1.319.073t1.3.058a8.7,8.7,0,0,0,1.32-.072,1.074,1.074,0,0,1,.71.13.861.861,0,0,1,.391.71.8.8,0,0,1-.246.754A1.346,1.346,0,0,1,27.927-7.714Zm.725-6.177a4.08,4.08,0,0,1-.377,1.813,21.369,21.369,0,0,1-.986,2.073,14.391,14.391,0,0,1-1.45-.014l-1.189-.073,1.856-3.915a1.208,1.208,0,0,1,.638-.71,1.368,1.368,0,0,1,.7-.073.839.839,0,0,1,.595.319A1.152,1.152,0,0,1,28.652-13.891ZM19.662-3.045Q20.59-4,21.533-5.118A23.325,23.325,0,0,0,23.2-7.337a6.1,6.1,0,0,1,1.189,0q.638.058,1.218.087a16.7,16.7,0,0,0-1.1,2.581,7.21,7.21,0,0,0-.348,1.711A1.512,1.512,0,0,0,24.346-2a.65.65,0,0,0,.536.29q.725,0,2.059-1.334a.839.839,0,0,1,.58-.247.785.785,0,0,1,.609.247.785.785,0,0,1,.247.609.839.839,0,0,1-.247.58A13.711,13.711,0,0,1,27-.826a6.163,6.163,0,0,1-.9.609,2.81,2.81,0,0,1-.768.29,3.618,3.618,0,0,1-.711.072,2.321,2.321,0,0,1-1.435-.406A2.34,2.34,0,0,1,22.4-1.305a3.872,3.872,0,0,1-.247-1.407A6.377,6.377,0,0,1,22.33-4.2q.058-.261-.116-.319t-.29.2a3.386,3.386,0,0,0-.2,1.566q-.2.232-.42.449l-.45.449a.839.839,0,0,1-.58.247.785.785,0,0,1-.609-.247.785.785,0,0,1-.247-.609A.839.839,0,0,1,19.662-3.045Z" transform="translate(146 116.161)" fill="#bd93f9"/>
    <g id="Mask_Group_3" data-name="Mask Group 3" transform="translate(-9.972 -118.001)" clip-path="url(#clip-path)">
      <rect id="BG" width="319.102" height="319.102" fill="url(#linear-gradient)"/>
    </g>
  </g>
</svg>
