<svg fill="none" xmlns="http://www.w3.org/2000/svg" viewBox="0 0 24 24"><path d="M11.504 4.019A6.51 6.51 0 0 0 5 10.522a6.51 6.51 0 0 0 6.504 6.504c1.096 0 2.174-.26 3.084-.762.073.088.154.169.242.242l1.858 1.858a1.895 1.895 0 1 0 2.676-2.676l-1.858-1.858a1.877 1.877 0 0 0-.298-.242c.502-.91.818-1.97.818-3.084A6.51 6.51 0 0 0 11.522 4l-.018.019Zm0 1.858a4.624 4.624 0 0 1 4.645 4.645c0 1.227-.446 2.36-1.226 3.196l-.056.056a1.856 1.856 0 0 0-.242.242c-.817.743-1.932 1.17-3.14 1.17a4.623 4.623 0 0 1-4.645-4.645 4.624 4.624 0 0 1 4.645-4.646l.019-.018Z" fill="currentColor"/></svg>
